<?xml version="1.0" encoding="UTF-8"?>
<svg xmlns="http://www.w3.org/2000/svg" xmlns:xlink="http://www.w3.org/1999/xlink" width="px" height="px" viewBox="0 0 368 68" version="1.1">
<g id="surface1">
<path style=" stroke:none;fill-rule:nonzero;fill:rgb(0%,0%,0%);fill-opacity:1;" d="M 101.273438 39.933594 C 100.988281 39.1875 100.847656 38.15625 100.847656 36.839844 C 100.847656 35.523438 101.296875 31.617188 102.191406 25.121094 C 103.089844 18.644531 103.539062 13.441406 103.539062 9.515625 C 103.539062 8.59375 103.476562 7.332031 103.34375 5.726562 C 105.664062 5.859375 107.121094 6.410156 107.714844 7.375 C 108.019531 7.945312 108.21875 8.484375 108.304688 8.988281 C 108.394531 9.492188 108.4375 10.292969 108.4375 11.390625 C 108.4375 12.464844 107.945312 16.558594 106.957031 23.671875 C 105.949219 30.78125 105.433594 35.851562 105.414062 38.878906 C 105.566406 38.835938 105.839844 38.816406 106.234375 38.816406 C 112.871094 38.816406 117.8125 38.355469 121.054688 37.433594 C 120.835938 39.210938 120.234375 40.59375 119.246094 41.582031 C 118.238281 42.566406 116.992188 43.0625 115.5 43.0625 C 115.0625 43.0625 113.738281 42.964844 111.523438 42.765625 C 109.289062 42.566406 107.132812 42.46875 105.050781 42.46875 C 102.972656 42.46875 100.878906 42.667969 98.777344 43.0625 C 99.191406 41.699219 100.023438 40.660156 101.273438 39.933594 Z M 131.535156 24.660156 C 130.660156 26.195312 129.980469 27.773438 129.5 29.398438 C 129.015625 31 128.777344 32.546875 128.777344 34.042969 C 128.777344 35.511719 129.105469 36.761719 129.761719 37.792969 C 130.417969 38.824219 131.359375 39.339844 132.585938 39.339844 C 134.316406 39.339844 135.929688 38.398438 137.417969 36.511719 C 138.929688 34.601562 140.089844 32.308594 140.902344 29.628906 C 141.710938 26.929688 142.117188 24.4375 142.117188 22.15625 C 142.117188 19.875 142.027344 17.996094 141.851562 16.527344 C 142.578125 16.460938 143.035156 16.429688 143.234375 16.429688 C 145.839844 16.429688 147.144531 17.765625 147.144531 20.445312 C 147.144531 21.015625 146.769531 23.386719 146.027344 27.554688 C 145.304688 31.726562 144.941406 35.0625 144.941406 37.5625 C 144.941406 40.066406 145.414062 42.28125 146.355469 44.214844 C 144.425781 43.820312 143.023438 42.964844 142.148438 41.644531 C 141.273438 40.351562 140.835938 38.476562 140.835938 36.015625 C 140.835938 35.578125 140.902344 34.742188 141.03125 33.515625 C 140.199219 36.433594 138.742188 38.78125 136.660156 40.558594 C 134.558594 42.359375 132.511719 43.257812 130.515625 43.257812 C 128.5 43.257812 126.882812 42.492188 125.652344 40.953125 C 124.425781 39.441406 123.8125 37.34375 123.8125 34.667969 C 123.8125 31.96875 124.316406 29.332031 125.324219 26.765625 C 126.3125 24.199219 127.8125 21.980469 129.828125 20.113281 C 131.820312 18.226562 134.066406 17.285156 136.5625 17.285156 C 137.636719 17.285156 138.820312 17.503906 140.113281 17.941406 C 138.292969 18.402344 136.628906 19.25 135.117188 20.476562 C 133.628906 21.707031 132.433594 23.101562 131.535156 24.660156 Z M 177.832031 10.667969 L 177.867188 11.226562 C 177.867188 12.390625 177.429688 16.207031 176.550781 22.683594 C 175.675781 29.136719 175.238281 34.535156 175.238281 38.878906 C 175.238281 40.8125 175.335938 42.316406 175.53125 43.390625 C 174.789062 43.457031 174.382812 43.488281 174.316406 43.488281 C 172.9375 43.488281 171.90625 43.171875 171.230469 42.535156 C 170.570312 41.898438 170.242188 40.867188 170.242188 39.441406 C 170.242188 38.015625 170.757812 33.644531 171.789062 26.335938 C 172.792969 19.050781 173.296875 13.847656 173.296875 10.734375 C 173.296875 7.617188 173.089844 5.574219 172.675781 4.609375 C 173.660156 4.742188 174.570312 5.125 175.402344 5.761719 C 176.257812 6.375 176.890625 7.210938 177.308594 8.261719 C 179.652344 7.011719 182.257812 6.386719 185.128906 6.386719 C 187.976562 6.386719 190.222656 7.265625 191.863281 9.019531 C 193.507812 10.796875 194.328125 12.972656 194.328125 15.539062 C 194.328125 18.832031 193.132812 21.792969 190.746094 24.429688 C 188.359375 27.039062 185.140625 28.34375 181.085938 28.34375 C 180.167969 28.34375 179.324219 28.289062 178.554688 28.179688 L 178.425781 26.699219 C 180.484375 26.699219 182.28125 26.390625 183.8125 25.777344 C 185.347656 25.164062 186.507812 24.351562 187.296875 23.339844 C 188.851562 21.367188 189.628906 19.0625 189.628906 16.429688 C 189.628906 14.519531 189.027344 12.925781 187.820312 11.65625 C 186.617188 10.382812 184.863281 9.746094 182.566406 9.746094 C 181.183594 9.746094 179.609375 10.050781 177.832031 10.667969 Z M 204.515625 24.660156 C 203.617188 26.195312 202.925781 27.773438 202.445312 29.398438 C 201.984375 31 201.753906 32.546875 201.753906 34.042969 C 201.753906 35.511719 202.082031 36.761719 202.738281 37.792969 C 203.398438 38.824219 204.339844 39.339844 205.566406 39.339844 C 207.273438 39.339844 208.882812 38.398438 210.394531 36.511719 C 211.886719 34.601562 213.035156 32.308594 213.847656 29.628906 C 214.679688 26.929688 215.09375 24.4375 215.09375 22.15625 C 215.09375 19.875 214.996094 17.996094 214.796875 16.527344 C 215.542969 16.460938 216.003906 16.429688 216.179688 16.429688 C 218.785156 16.429688 220.089844 17.765625 220.089844 20.445312 C 220.089844 21.015625 219.726562 23.386719 219.003906 27.554688 C 218.261719 31.726562 217.886719 35.0625 217.886719 37.5625 C 217.886719 40.066406 218.359375 42.28125 219.300781 44.214844 C 217.371094 43.820312 215.972656 42.964844 215.09375 41.644531 C 214.21875 40.351562 213.78125 38.476562 213.78125 36.015625 C 213.78125 35.578125 213.847656 34.742188 213.976562 33.515625 C 213.144531 36.433594 211.6875 38.78125 209.605469 40.558594 C 207.527344 42.359375 205.476562 43.257812 203.460938 43.257812 C 201.449219 43.257812 199.828125 42.492188 198.601562 40.953125 C 197.371094 39.441406 196.757812 37.34375 196.757812 34.667969 C 196.757812 31.96875 197.261719 29.332031 198.269531 26.765625 C 199.257812 24.199219 200.757812 21.980469 202.773438 20.113281 C 204.789062 18.226562 207.035156 17.285156 209.507812 17.285156 C 210.582031 17.285156 211.765625 17.503906 213.058594 17.941406 C 211.238281 18.402344 209.585938 19.25 208.09375 20.476562 C 206.585938 21.707031 205.390625 23.101562 204.515625 24.660156 Z M 248.511719 22.648438 C 248.511719 24.054688 248.214844 26.546875 247.625 30.125 C 247.03125 33.699219 246.738281 36.3125 246.738281 37.957031 C 246.738281 39.582031 246.933594 40.757812 247.328125 41.480469 C 247.722656 42.207031 248.402344 42.820312 249.367188 43.324219 C 248.949219 43.367188 248.378906 43.390625 247.65625 43.390625 C 245.574219 43.390625 244.097656 42.996094 243.222656 42.207031 C 242.34375 41.414062 241.90625 40.011719 241.90625 37.992188 C 241.90625 36.851562 242.214844 34.558594 242.828125 31.109375 C 243.441406 27.644531 243.746094 25.097656 243.746094 23.472656 C 243.746094 21.453125 243.132812 20.445312 241.90625 20.445312 C 239.933594 20.445312 237.898438 22.179688 235.796875 25.644531 C 233.691406 29.113281 232.640625 33.296875 232.640625 38.1875 C 232.640625 40.121094 232.738281 41.625 232.9375 42.699219 C 232.125 42.765625 231.644531 42.796875 231.492188 42.796875 C 228.796875 42.796875 227.449219 41.46875 227.449219 38.816406 C 227.449219 38.199219 227.777344 35.839844 228.433594 31.738281 C 229.070312 27.609375 229.386719 24.328125 229.386719 21.894531 C 229.386719 19.433594 229.125 17.183594 228.597656 15.144531 C 230.417969 15.847656 231.6875 16.84375 232.410156 18.140625 C 233.132812 19.457031 233.496094 20.949219 233.496094 22.617188 C 233.496094 24.285156 233.308594 26.226562 232.9375 28.445312 C 233.945312 24.976562 235.53125 22.058594 237.699219 19.6875 C 239.847656 17.296875 241.863281 16.097656 243.746094 16.097656 C 246.921875 16.097656 248.511719 18.28125 248.511719 22.648438 Z M 270.558594 17.449219 C 270.558594 18.722656 270.320312 19.609375 269.835938 20.113281 C 269.332031 20.597656 268.609375 20.839844 267.667969 20.839844 L 264.347656 20.839844 C 264.21875 21.652344 263.898438 23.5625 263.394531 26.566406 C 262.34375 32.273438 261.820312 36.585938 261.820312 39.507812 C 261.820312 42.425781 262.039062 44.367188 262.476562 45.332031 C 260.722656 44.675781 259.476562 43.699219 258.730469 42.402344 C 258.007812 41.085938 257.644531 39.496094 257.644531 37.628906 C 257.644531 35.742188 257.753906 33.964844 257.976562 32.296875 C 258.214844 30.628906 258.542969 28.675781 258.960938 26.4375 C 259.398438 24.175781 259.707031 22.375 259.878906 21.035156 C 258.128906 21.277344 256.410156 21.773438 254.722656 22.519531 C 254.679688 22.015625 254.65625 21.5625 254.65625 21.167969 C 254.65625 19.699219 255.136719 18.710938 256.101562 18.207031 C 257.085938 17.699219 258.5 17.449219 260.339844 17.449219 C 260.558594 15.164062 260.667969 13.464844 260.667969 12.34375 C 260.667969 11.226562 260.65625 10.328125 260.636719 9.644531 C 260.636719 8.964844 260.636719 8.460938 260.636719 8.132812 C 262.039062 8.351562 263.121094 8.976562 263.890625 10.007812 C 264.65625 11.019531 265.039062 12.421875 265.039062 14.222656 C 265.039062 15.144531 264.960938 16.261719 264.808594 17.582031 C 267.480469 17.582031 269.367188 17.128906 270.460938 16.230469 C 270.527344 16.667969 270.558594 17.074219 270.558594 17.449219 Z M 279.199219 28.445312 C 280.207031 24.976562 281.765625 22.058594 283.867188 19.6875 C 285.96875 17.296875 287.941406 16.097656 289.78125 16.097656 C 291.621094 16.097656 292.925781 16.660156 293.691406 17.777344 C 294.457031 18.898438 294.839844 20.421875 294.839844 22.355469 C 294.839844 24.261719 294.546875 26.953125 293.953125 30.417969 C 293.363281 33.910156 293.066406 36.445312 293.066406 38.023438 C 293.066406 39.605469 293.265625 40.757812 293.660156 41.480469 C 294.054688 42.207031 294.722656 42.820312 295.664062 43.324219 C 295.269531 43.367188 294.710938 43.390625 293.988281 43.390625 C 292.015625 43.390625 290.558594 42.984375 289.617188 42.171875 C 288.695312 41.359375 288.238281 39.96875 288.238281 37.992188 C 288.238281 36.851562 288.542969 34.558594 289.15625 31.109375 C 289.769531 27.644531 290.078125 25.097656 290.078125 23.472656 C 290.078125 21.453125 289.367188 20.445312 287.941406 20.445312 C 287.109375 20.445312 286.1875 20.882812 285.179688 21.761719 C 284.171875 22.617188 283.199219 23.792969 282.257812 25.285156 C 281.335938 26.777344 280.558594 28.675781 279.925781 30.980469 C 279.289062 33.261719 278.972656 35.511719 278.972656 37.726562 C 278.972656 39.96875 279.070312 41.625 279.265625 42.699219 C 278.523438 42.765625 278.105469 42.796875 278.019531 42.796875 C 276.574219 42.796875 275.511719 42.492188 274.832031 41.875 C 274.128906 41.261719 273.78125 40.296875 273.78125 38.980469 C 273.78125 37.683594 274.054688 35.171875 274.601562 31.441406 C 276.222656 20.003906 277.03125 11.324219 277.03125 5.398438 C 277.03125 2.722656 276.855469 0.921875 276.507812 0 C 278.28125 0.660156 279.53125 1.613281 280.253906 2.863281 C 280.976562 4.136719 281.335938 5.871094 281.335938 8.066406 C 281.335938 9.601562 281.03125 12.828125 280.417969 17.746094 C 279.824219 22.660156 279.421875 26.226562 279.199219 28.445312 Z M 314 18.503906 C 312.15625 18.503906 310.601562 19.554688 309.332031 21.664062 C 308.039062 23.792969 307.183594 26.28125 306.769531 29.136719 L 308.050781 29.136719 C 309.671875 29.136719 311.085938 28.90625 312.289062 28.445312 C 313.472656 27.984375 314.390625 27.390625 315.050781 26.667969 C 316.277344 25.238281 316.890625 23.636719 316.890625 21.859375 C 316.890625 20.851562 316.648438 20.039062 316.167969 19.425781 C 315.683594 18.808594 314.960938 18.503906 314 18.503906 Z M 320.472656 37.167969 C 319.070312 39.472656 317.523438 41.085938 315.839844 42.007812 C 314.152344 42.929688 312.191406 43.390625 309.957031 43.390625 C 307.742188 43.390625 305.804688 42.402344 304.140625 40.429688 C 302.476562 38.476562 301.644531 35.710938 301.644531 32.132812 C 301.644531 28.070312 302.738281 24.449219 304.929688 21.265625 C 306.003906 19.730469 307.40625 18.480469 309.136719 17.515625 C 310.867188 16.570312 312.769531 16.097656 314.851562 16.097656 C 319.453125 16.097656 321.753906 18.328125 321.753906 22.78125 C 321.753906 25.460938 320.722656 27.554688 318.664062 29.070312 C 316.582031 30.585938 314.183594 31.339844 311.46875 31.339844 C 309.648438 31.339844 308.019531 31.175781 306.570312 30.847656 C 306.550781 31.15625 306.539062 31.625 306.539062 32.261719 C 306.539062 37.707031 308.148438 40.429688 311.371094 40.429688 C 314.390625 40.429688 316.855469 38.925781 318.761719 35.917969 C 319.902344 36.070312 320.472656 36.488281 320.472656 37.167969 Z M 319.550781 12.640625 C 319.527344 12.972656 319.363281 13.289062 319.058594 13.597656 C 318.773438 13.882812 318.445312 14.070312 318.074219 14.15625 C 316.976562 12.773438 315.5625 11.414062 313.832031 10.074219 C 312.101562 8.714844 310.339844 7.757812 308.542969 7.210938 C 308.609375 5.609375 309.355469 4.34375 310.777344 3.425781 C 312.398438 4.058594 314.074219 5.332031 315.804688 7.242188 C 317.535156 9.128906 318.785156 10.929688 319.550781 12.640625 Z M 333.121094 27.71875 C 334.21875 23.726562 335.542969 20.785156 337.097656 18.898438 C 338.652344 17.007812 340.097656 16.066406 341.433594 16.066406 C 342.769531 16.066406 343.769531 16.558594 344.425781 17.546875 C 345.105469 18.558594 345.445312 19.828125 345.445312 21.367188 C 345.445312 22.902344 345.050781 24.230469 344.261719 25.351562 C 343.449219 26.46875 342.277344 27.027344 340.746094 27.027344 C 340.261719 27.027344 339.878906 26.996094 339.59375 26.929688 C 340.644531 25.414062 341.171875 23.878906 341.171875 22.320312 C 341.171875 21.222656 340.722656 20.675781 339.824219 20.675781 C 339.125 20.675781 338.378906 21.082031 337.589844 21.894531 C 336.78125 22.726562 336.011719 23.878906 335.289062 25.351562 C 334.546875 26.84375 333.933594 28.761719 333.449219 31.109375 C 332.945312 33.480469 332.695312 36.039062 332.695312 38.78125 C 332.695312 39.089844 332.769531 40.394531 332.925781 42.699219 C 332.136719 42.765625 331.675781 42.796875 331.542969 42.796875 C 328.851562 42.796875 327.503906 41.46875 327.503906 38.816406 C 327.503906 38.199219 327.832031 35.839844 328.488281 31.738281 C 329.125 27.609375 329.441406 24.328125 329.441406 21.894531 C 329.441406 19.433594 329.179688 17.183594 328.652344 15.144531 C 330.472656 15.847656 331.742188 16.84375 332.464844 18.140625 C 333.1875 19.457031 333.546875 20.980469 333.546875 22.714844 C 333.546875 24.449219 333.40625 26.117188 333.121094 27.71875 Z M 360.230469 18.503906 C 358.390625 18.503906 356.824219 19.554688 355.53125 21.664062 C 354.261719 23.792969 353.417969 26.28125 353 29.136719 L 354.28125 29.136719 C 355.902344 29.136719 357.316406 28.90625 358.519531 28.445312 C 359.703125 27.984375 360.625 27.390625 361.28125 26.667969 C 362.507812 25.238281 363.121094 23.636719 363.121094 21.859375 C 363.121094 20.851562 362.878906 20.039062 362.398438 19.425781 C 361.917969 18.808594 361.195312 18.503906 360.230469 18.503906 Z M 366.703125 37.167969 C 365.300781 39.472656 363.757812 41.085938 362.070312 42.007812 C 360.382812 42.929688 358.421875 43.390625 356.1875 43.390625 C 353.976562 43.390625 352.035156 42.402344 350.371094 40.429688 C 348.707031 38.476562 347.875 35.710938 347.875 32.132812 C 347.875 28.070312 348.96875 24.449219 351.160156 21.265625 C 352.234375 19.730469 353.636719 18.480469 355.367188 17.515625 C 357.097656 16.570312 359.003906 16.097656 361.085938 16.097656 C 365.683594 16.097656 367.984375 18.328125 367.984375 22.78125 C 367.984375 25.460938 366.953125 27.554688 364.894531 29.070312 C 362.816406 30.585938 360.414062 31.339844 357.699219 31.339844 C 355.882812 31.339844 354.25 31.175781 352.804688 30.847656 C 352.78125 31.15625 352.769531 31.625 352.769531 32.261719 C 352.769531 37.707031 354.382812 40.429688 357.601562 40.429688 C 360.625 40.429688 363.089844 38.925781 364.996094 35.917969 C 366.132812 36.070312 366.703125 36.488281 366.703125 37.167969 Z M 366.703125 37.167969 "/>
<path style=" stroke:none;fill-rule:nonzero;fill:rgb(11.372549%,11.372549%,10.588235%);fill-opacity:1;" d="M 36.859375 31.015625 L 36.859375 30.953125 C 36.164062 29.722656 35.007812 28.828125 33.648438 28.464844 L 33.519531 28.464844 C 32.777344 28.238281 32.011719 28.09375 31.238281 28.035156 C 29.144531 27.753906 27.140625 27.011719 25.371094 25.859375 C 25.058594 25.671875 24.65625 25.761719 24.449219 26.0625 C 24.246094 26.363281 24.3125 26.773438 24.601562 26.992188 C 25.1875 27.371094 25.796875 27.710938 26.429688 28.007812 C 26.429688 28.097656 26.347656 28.191406 26.320312 28.289062 C 25.484375 31.234375 27.175781 34.300781 30.105469 35.15625 C 30.632812 35.308594 31.179688 35.386719 31.730469 35.386719 C 33.402344 35.394531 34.984375 34.625 36.011719 33.300781 C 36.089844 34.21875 36.035156 35.144531 35.847656 36.042969 C 35.773438 36.222656 35.777344 36.421875 35.859375 36.597656 C 35.941406 36.769531 36.09375 36.902344 36.273438 36.957031 C 36.347656 36.96875 36.421875 36.96875 36.492188 36.957031 C 36.789062 36.957031 37.046875 36.769531 37.140625 36.492188 C 37.433594 35.265625 37.503906 33.996094 37.351562 32.742188 C 37.304688 32.140625 37.136719 31.550781 36.859375 31.015625 Z M 32.78125 29.652344 C 32.8125 29.808594 32.8125 29.972656 32.78125 30.128906 C 32.601562 30.765625 31.9375 31.140625 31.300781 30.960938 C 30.664062 30.78125 30.292969 30.117188 30.472656 29.480469 C 30.496094 29.425781 30.523438 29.375 30.554688 29.324219 L 31.101562 29.386719 C 31.671875 29.429688 32.242188 29.523438 32.796875 29.660156 Z M 33.636719 33.539062 C 32.65625 34.042969 31.519531 34.148438 30.460938 33.832031 C 28.242188 33.191406 26.960938 30.871094 27.597656 28.648438 L 27.597656 28.539062 C 28.105469 28.734375 28.621094 28.902344 29.148438 29.039062 L 29.148438 29.09375 C 28.855469 30.023438 29.109375 31.039062 29.808594 31.714844 C 30.507812 32.390625 31.53125 32.609375 32.445312 32.28125 C 33.359375 31.953125 34.007812 31.132812 34.121094 30.164062 C 34.667969 30.441406 35.132812 30.859375 35.472656 31.371094 C 35.160156 32.296875 34.511719 33.070312 33.65625 33.539062 Z M 58.367188 28.273438 C 58.367188 28.171875 58.296875 28.089844 58.257812 27.988281 C 58.890625 27.691406 59.5 27.351562 60.085938 26.972656 C 60.375 26.753906 60.441406 26.34375 60.238281 26.042969 C 60.03125 25.742188 59.628906 25.652344 59.316406 25.839844 C 57.546875 26.992188 55.542969 27.734375 53.449219 28.015625 C 52.667969 28.074219 51.898438 28.21875 51.148438 28.445312 L 51.039062 28.445312 C 49.667969 28.808594 48.503906 29.710938 47.808594 30.953125 L 47.808594 30.996094 C 47.523438 31.550781 47.355469 32.15625 47.316406 32.78125 C 47.164062 34.03125 47.234375 35.300781 47.527344 36.527344 C 47.621094 36.808594 47.882812 36.996094 48.175781 36.996094 C 48.398438 37 48.609375 36.890625 48.742188 36.710938 C 48.875 36.527344 48.90625 36.292969 48.832031 36.082031 C 48.640625 35.179688 48.582031 34.253906 48.660156 33.335938 C 49.683594 34.660156 51.265625 35.429688 52.9375 35.421875 C 53.488281 35.421875 54.035156 35.34375 54.5625 35.195312 C 55.988281 34.785156 57.1875 33.824219 57.902344 32.527344 C 58.617188 31.226562 58.785156 29.695312 58.367188 28.273438 Z M 53.53125 29.386719 L 54.078125 29.324219 C 54.109375 29.375 54.136719 29.425781 54.160156 29.480469 C 54.335938 30.109375 53.976562 30.761719 53.347656 30.941406 C 52.96875 31.058594 52.550781 30.972656 52.25 30.710938 C 51.945312 30.449219 51.800781 30.046875 51.863281 29.652344 C 52.414062 29.515625 52.976562 29.429688 53.542969 29.386719 Z M 54.199219 33.832031 C 53.140625 34.148438 52.003906 34.042969 51.023438 33.539062 C 50.164062 33.070312 49.511719 32.292969 49.195312 31.363281 C 49.535156 30.851562 50 30.441406 50.546875 30.164062 C 50.5625 30.277344 50.582031 30.390625 50.613281 30.503906 C 50.933594 31.589844 51.933594 32.335938 53.066406 32.332031 C 53.847656 32.316406 54.582031 31.941406 55.050781 31.316406 C 55.523438 30.6875 55.683594 29.882812 55.484375 29.121094 L 55.484375 29.066406 C 56.011719 28.929688 56.527344 28.761719 57.035156 28.566406 L 57.035156 28.675781 C 57.65625 30.882812 56.390625 33.175781 54.199219 33.832031 Z M 54.199219 33.832031 "/>
<path style=" stroke:none;fill-rule:nonzero;fill:rgb(11.372549%,11.372549%,10.588235%);fill-opacity:1;" d="M 38.984375 29.9375 C 38.839844 27.878906 37.160156 26.570312 34.285156 26.351562 C 32.765625 26.152344 31.308594 25.625 30.015625 24.808594 C 29.699219 24.597656 29.273438 24.683594 29.066406 25 C 28.855469 25.316406 28.941406 25.738281 29.257812 25.949219 C 30.746094 26.902344 32.429688 27.503906 34.183594 27.714844 C 35.417969 27.804688 37.496094 28.234375 37.625 30.027344 C 37.648438 30.386719 37.949219 30.667969 38.308594 30.667969 L 38.355469 30.667969 C 38.730469 30.636719 39.011719 30.3125 38.984375 29.9375 Z M 50.832031 27.714844 C 52.585938 27.503906 54.269531 26.902344 55.757812 25.949219 C 56.074219 25.738281 56.160156 25.316406 55.949219 25 C 55.742188 24.683594 55.316406 24.597656 55 24.808594 C 53.707031 25.636719 52.246094 26.171875 50.722656 26.378906 C 47.882812 26.597656 46.160156 27.90625 46.019531 29.964844 C 46.007812 30.144531 46.070312 30.324219 46.1875 30.460938 C 46.308594 30.601562 46.476562 30.683594 46.660156 30.695312 L 46.707031 30.695312 C 47.066406 30.695312 47.367188 30.414062 47.390625 30.054688 C 47.519531 28.207031 49.636719 27.816406 50.832031 27.714844 Z M 28.316406 22.949219 C 28.46875 23.148438 28.71875 23.246094 28.964844 23.210938 C 29.210938 23.171875 29.414062 23.003906 29.5 22.769531 C 29.585938 22.535156 29.539062 22.269531 29.375 22.082031 L 26.464844 18.496094 C 26.3125 18.300781 26.066406 18.199219 25.820312 18.238281 C 25.570312 18.277344 25.367188 18.445312 25.28125 18.679688 C 25.195312 18.914062 25.242188 19.179688 25.40625 19.367188 Z M 31.382812 20.964844 C 31.484375 21.230469 31.738281 21.40625 32.023438 21.40625 C 32.242188 21.402344 32.449219 21.292969 32.578125 21.113281 C 32.703125 20.929688 32.734375 20.699219 32.660156 20.492188 L 31.375 17.125 C 31.238281 16.773438 30.84375 16.597656 30.488281 16.734375 C 30.136719 16.871094 29.960938 17.265625 30.097656 17.621094 Z M 35.035156 21.066406 C 35.390625 21.066406 35.691406 20.792969 35.71875 20.4375 L 35.945312 17.527344 C 35.960938 17.347656 35.902344 17.167969 35.785156 17.027344 C 35.667969 16.886719 35.5 16.800781 35.316406 16.789062 C 35.132812 16.769531 34.953125 16.828125 34.8125 16.945312 C 34.675781 17.066406 34.589844 17.234375 34.578125 17.417969 L 34.347656 20.335938 C 34.335938 20.523438 34.402344 20.710938 34.53125 20.851562 C 34.664062 20.988281 34.84375 21.066406 35.035156 21.066406 Z M 35.035156 21.066406 "/>
<path style=" stroke:none;fill-rule:nonzero;fill:rgb(11.372549%,11.372549%,10.588235%);fill-opacity:1;" d="M 83.683594 44.667969 C 80.125 43.53125 71.746094 43.632812 64.9375 43.945312 C 69.503906 38.175781 69.503906 32.597656 68.691406 29.972656 C 68.070312 28.007812 67.109375 23.050781 68.335938 21.121094 C 68.5625 20.730469 68.960938 20.46875 69.410156 20.417969 C 71.015625 20.207031 71.308594 18.535156 71.539062 17.199219 C 71.597656 16.722656 71.707031 16.25 71.855469 15.792969 C 72.132812 15.296875 72.511719 14.871094 72.96875 14.539062 C 74.25 13.515625 75.246094 12.183594 75.871094 10.671875 C 77.324219 7.097656 75.378906 5.332031 75.296875 5.257812 C 75.222656 5.199219 75.132812 5.160156 75.042969 5.140625 L 74.914062 5.140625 C 73.421875 4.75 71.835938 4.988281 70.523438 5.808594 C 69.902344 6.109375 69.136719 6.472656 68.003906 6.949219 C 65.570312 8.179688 62.617188 7.691406 60.703125 5.742188 C 56.597656 1.792969 53.707031 0.648438 42.378906 0.648438 C 31.054688 0.648438 28.199219 1.800781 24.128906 5.742188 C 22.214844 7.691406 19.265625 8.179688 16.828125 6.949219 C 15.976562 6.59375 15.136719 6.210938 14.308594 5.808594 C 13 4.988281 11.414062 4.75 9.917969 5.140625 L 9.792969 5.140625 C 9.699219 5.160156 9.613281 5.199219 9.535156 5.257812 C 9.453125 5.332031 7.511719 7.085938 8.960938 10.671875 C 9.585938 12.183594 10.585938 13.515625 11.863281 14.539062 C 12.320312 14.871094 12.699219 15.296875 12.976562 15.792969 C 13.074219 16.265625 13.125 16.75 13.132812 17.234375 C 13.359375 18.582031 13.644531 20.246094 15.257812 20.453125 C 15.707031 20.503906 16.109375 20.765625 16.335938 21.160156 C 17.558594 23.085938 16.601562 28.042969 15.980469 30.007812 C 15.148438 32.632812 15.183594 38.238281 19.730469 43.980469 C 12.921875 43.667969 4.542969 43.570312 0.984375 44.703125 C 0.625 44.820312 0.425781 45.207031 0.542969 45.566406 C 0.660156 45.929688 1.042969 46.125 1.40625 46.011719 C 5.136719 44.820312 15.09375 45.097656 20.734375 45.40625 L 20.960938 45.40625 L 21.554688 46.039062 C 14.546875 46.136719 9.792969 46.625 7.410156 47.484375 C 7.171875 47.5625 6.996094 47.761719 6.953125 48.007812 C 6.90625 48.253906 6.996094 48.503906 7.1875 48.664062 C 7.378906 48.820312 7.644531 48.863281 7.875 48.773438 C 10.230469 47.921875 15.449219 47.445312 22.988281 47.390625 C 23.308594 47.664062 23.636719 47.929688 23.964844 48.195312 C 18.058594 48.523438 8.449219 49.300781 4.800781 50.9375 C 4.484375 51.105469 4.351562 51.492188 4.496094 51.820312 C 4.636719 52.148438 5.011719 52.308594 5.347656 52.191406 C 9.152344 50.519531 20.113281 49.777344 25.625 49.496094 L 26.539062 50.152344 L 26.628906 50.214844 C 20.890625 50.773438 16.964844 51.496094 14.957031 52.375 C 14.640625 52.542969 14.507812 52.925781 14.652344 53.253906 C 14.796875 53.582031 15.167969 53.746094 15.503906 53.628906 C 17.394531 52.796875 21.390625 52.082031 27.113281 51.542969 C 27.085938 53.234375 27.296875 54.917969 27.734375 56.554688 C 29.222656 60.503906 31.253906 61.472656 33.628906 61.671875 C 33.96875 62.316406 34.441406 62.878906 35.015625 63.328125 C 33.738281 64.484375 32.691406 65.871094 31.921875 67.414062 C 31.785156 67.769531 31.960938 68.164062 32.3125 68.300781 C 32.667969 68.4375 33.0625 68.261719 33.199219 67.910156 C 33.445312 67.269531 34.183594 66.082031 36.203125 64.078125 C 36.785156 64.375 37.398438 64.613281 38.027344 64.792969 C 37.585938 65.785156 37.300781 66.84375 37.1875 67.925781 C 37.175781 68.109375 37.242188 68.289062 37.363281 68.421875 C 37.484375 68.558594 37.652344 68.640625 37.835938 68.648438 C 38.199219 68.648438 38.5 68.363281 38.519531 68 C 38.640625 66.996094 38.921875 66.015625 39.351562 65.101562 C 41.328125 65.433594 43.34375 65.433594 45.320312 65.101562 C 45.746094 66.019531 46.027344 66.996094 46.148438 68 C 46.167969 68.363281 46.46875 68.648438 46.832031 68.648438 C 47.015625 68.640625 47.1875 68.558594 47.308594 68.421875 C 47.429688 68.289062 47.492188 68.109375 47.480469 67.925781 C 47.378906 66.84375 47.105469 65.78125 46.667969 64.78125 C 47.300781 64.605469 47.910156 64.367188 48.496094 64.070312 C 50.511719 66.070312 51.230469 67.261719 51.496094 67.898438 C 51.632812 68.253906 52.027344 68.429688 52.382812 68.292969 C 52.734375 68.15625 52.910156 67.757812 52.773438 67.40625 C 52.003906 65.863281 50.957031 64.476562 49.679688 63.320312 C 50.253906 62.871094 50.726562 62.308594 51.066406 61.664062 C 53.441406 61.464844 55.476562 60.503906 56.953125 56.554688 C 57.378906 54.925781 57.578125 53.25 57.546875 51.570312 C 63.269531 52.109375 67.277344 52.824219 69.15625 53.65625 C 69.382812 53.777344 69.65625 53.757812 69.867188 53.613281 C 70.078125 53.464844 70.191406 53.210938 70.15625 52.957031 C 70.121094 52.699219 69.945312 52.488281 69.703125 52.402344 C 67.675781 51.488281 63.679688 50.785156 57.839844 50.226562 L 58.570312 49.714844 L 58.851562 49.511719 C 64.328125 49.785156 75.460938 50.527344 79.3125 52.253906 C 79.648438 52.375 80.023438 52.210938 80.164062 51.882812 C 80.308594 51.554688 80.175781 51.171875 79.859375 51.003906 C 76.15625 49.375 66.527344 48.605469 60.632812 48.261719 C 60.980469 47.996094 61.316406 47.730469 61.644531 47.457031 C 69.199219 47.5 74.421875 47.976562 76.785156 48.835938 C 77.136719 48.953125 77.515625 48.765625 77.644531 48.417969 C 77.769531 48.070312 77.59375 47.683594 77.25 47.546875 C 74.878906 46.6875 70.121094 46.203125 63.105469 46.101562 L 63.699219 45.472656 L 63.925781 45.472656 C 69.539062 45.1875 79.523438 44.886719 83.253906 46.074219 C 83.644531 46.191406 84.054688 45.972656 84.171875 45.585938 C 84.289062 45.195312 84.070312 44.785156 83.683594 44.667969 Z M 45.355469 61.957031 C 45.167969 61.628906 44.746094 61.515625 44.417969 61.707031 C 44.09375 61.894531 43.980469 62.3125 44.167969 62.640625 C 44.316406 62.890625 44.523438 63.28125 44.753906 63.738281 C 43.171875 63.96875 41.570312 63.96875 39.988281 63.738281 C 40.308594 63.089844 40.5625 62.652344 40.574219 62.640625 C 40.761719 62.3125 40.648438 61.894531 40.324219 61.707031 C 39.996094 61.515625 39.574219 61.628906 39.386719 61.957031 C 39.386719 62.011719 39.003906 62.625 38.59375 63.472656 C 37.347656 63.207031 36.207031 62.570312 35.324219 61.644531 L 37.542969 61.644531 C 39.542969 61.636719 41.382812 60.535156 42.335938 58.773438 C 43.296875 60.546875 45.148438 61.644531 47.160156 61.636719 L 49.378906 61.636719 C 48.496094 62.558594 47.359375 63.195312 46.113281 63.464844 C 45.703125 62.640625 45.355469 62.039062 45.320312 61.976562 Z M 60.960938 46.175781 L 60.886719 46.230469 C 60.121094 46.871094 59.273438 47.492188 58.441406 48.058594 L 57.730469 48.058594 C 57.847656 46.496094 58.140625 45.085938 58.707031 44.667969 C 59.007812 44.429688 59.0625 43.992188 58.824219 43.6875 C 58.589844 43.386719 58.152344 43.332031 57.847656 43.570312 C 56.9375 44.328125 56.535156 45.984375 56.359375 47.984375 L 55.804688 47.984375 C 55.621094 47.976562 55.441406 48.042969 55.308594 48.167969 C 55.175781 48.292969 55.101562 48.46875 55.101562 48.652344 C 55.089844 49.03125 55.390625 49.347656 55.769531 49.355469 L 56.277344 49.355469 L 56.277344 50.035156 L 56.113281 50.035156 C 55.742188 50.007812 55.414062 50.28125 55.375 50.65625 C 55.34375 51.03125 55.621094 51.363281 55.996094 51.394531 L 56.1875 51.394531 C 56.214844 52.949219 56.042969 54.503906 55.675781 56.011719 C 54.390625 59.441406 52.847656 60.164062 50.613281 60.273438 L 47.160156 60.273438 C 44.90625 60.269531 43.066406 58.457031 43.027344 56.195312 C 43.347656 55.894531 43.703125 55.636719 44.085938 55.429688 C 45 54.84375 46.339844 54.039062 45.847656 52.878906 C 45.675781 52.476562 45.792969 52.28125 47.363281 51.214844 L 47.9375 50.820312 C 48.617188 50.453125 49.066406 49.765625 49.125 48.992188 C 49.082031 48.394531 48.761719 47.851562 48.257812 47.527344 C 47.949219 47.339844 47.546875 47.429688 47.34375 47.730469 C 47.164062 48.039062 47.246094 48.433594 47.535156 48.644531 C 47.609375 48.699219 47.773438 48.855469 47.78125 48.980469 C 47.792969 49.109375 47.628906 49.355469 47.179688 49.667969 L 46.613281 50.0625 C 45.128906 51.066406 43.957031 51.890625 44.605469 53.324219 C 44.535156 53.554688 43.792969 54 43.394531 54.238281 C 43.035156 54.449219 42.691406 54.6875 42.363281 54.945312 C 42.035156 54.6875 41.691406 54.449219 41.332031 54.238281 C 40.894531 54 40.488281 53.714844 40.117188 53.390625 C 40.765625 51.863281 39.585938 51.066406 38.109375 50.050781 L 37.542969 49.660156 C 37.105469 49.347656 36.941406 49.101562 36.941406 48.972656 C 36.941406 48.84375 37.105469 48.691406 37.179688 48.632812 C 37.472656 48.421875 37.550781 48.015625 37.355469 47.707031 C 37.15625 47.402344 36.753906 47.300781 36.4375 47.484375 C 35.9375 47.804688 35.617188 48.347656 35.574219 48.945312 C 35.628906 49.71875 36.078125 50.40625 36.757812 50.773438 L 37.332031 51.167969 C 38.914062 52.238281 39.023438 52.429688 38.847656 52.832031 C 38.355469 54 39.660156 54.796875 40.609375 55.382812 C 40.976562 55.59375 41.332031 55.828125 41.667969 56.085938 C 41.660156 58.371094 39.804688 60.21875 37.523438 60.21875 L 36.101562 60.21875 C 32.707031 60.300781 30.625 60.347656 29 55.957031 C 28.636719 54.449219 28.464844 52.894531 28.492188 51.339844 L 28.683594 51.339844 C 29.058594 51.308594 29.339844 50.976562 29.308594 50.597656 C 29.273438 50.21875 28.941406 49.9375 28.5625 49.96875 L 28.4375 49.96875 L 28.4375 49.292969 L 28.945312 49.292969 C 29.324219 49.292969 29.632812 48.984375 29.632812 48.605469 C 29.632812 48.230469 29.324219 47.921875 28.945312 47.921875 L 28.390625 47.921875 C 28.21875 45.917969 27.859375 44.265625 26.902344 43.503906 C 26.582031 43.246094 26.113281 43.292969 25.851562 43.613281 C 25.59375 43.9375 25.644531 44.40625 25.960938 44.667969 C 26.527344 45.113281 26.792969 46.496094 26.929688 48.058594 L 26.0625 48.058594 C 25.289062 47.472656 24.511719 46.859375 23.800781 46.230469 C 23.761719 46.179688 23.714844 46.136719 23.664062 46.101562 C 23.425781 45.890625 23.1875 45.679688 22.96875 45.472656 L 25.097656 45.609375 L 25.152344 45.609375 C 25.527344 45.625 25.847656 45.328125 25.863281 44.949219 C 25.878906 44.570312 25.582031 44.25 25.207031 44.238281 C 25.207031 44.238281 23.773438 44.128906 21.554688 44.007812 C 16.589844 38.347656 16.460938 32.851562 17.246094 30.367188 C 17.246094 30.292969 19.375 23.398438 17.457031 20.371094 C 17.015625 19.65625 16.28125 19.175781 15.449219 19.066406 C 14.882812 18.992188 14.703125 18.148438 14.539062 16.972656 C 14.460938 16.398438 14.324219 15.835938 14.136719 15.289062 C 13.789062 14.582031 13.277344 13.972656 12.648438 13.503906 C 11.527344 12.625 10.652344 11.46875 10.109375 10.148438 C 9.199219 7.992188 9.902344 6.804688 10.203125 6.417969 C 10.871094 6.359375 11.539062 6.535156 12.089844 6.914062 C 12.15625 6.96875 18.953125 11.960938 21.9375 11.960938 L 22.257812 11.960938 C 19.519531 13.925781 17.914062 16.441406 17.914062 18.898438 C 17.914062 19.277344 18.21875 19.585938 18.597656 19.585938 C 18.976562 19.585938 19.28125 19.277344 19.28125 18.898438 C 19.28125 16.332031 21.65625 13.515625 25.332031 11.714844 C 26.765625 11.5 28.148438 11.039062 29.421875 10.351562 C 29.640625 10.234375 29.78125 10.007812 29.785156 9.761719 C 29.789062 9.511719 29.660156 9.28125 29.449219 9.152344 C 29.234375 9.027344 28.96875 9.027344 28.753906 9.152344 C 26.613281 10.210938 24.242188 10.707031 21.855469 10.597656 C 20.714844 10.597656 18.535156 9.492188 16.507812 8.265625 C 19.390625 9.5625 22.773438 8.933594 24.996094 6.683594 C 28.644531 3.191406 30.917969 1.976562 42.335938 1.976562 C 53.75 1.976562 56.023438 3.199219 59.671875 6.683594 C 61.0625 8.101562 62.957031 8.90625 64.9375 8.925781 C 66.015625 8.910156 67.078125 8.699219 68.078125 8.304688 C 66.0625 9.519531 63.878906 10.617188 62.75 10.617188 C 60.363281 10.726562 57.992188 10.230469 55.851562 9.171875 C 55.519531 8.996094 55.113281 9.117188 54.929688 9.445312 C 54.75 9.769531 54.863281 10.179688 55.183594 10.371094 C 56.464844 11.066406 57.859375 11.535156 59.300781 11.75 C 62.949219 13.578125 65.351562 16.320312 65.351562 18.9375 C 65.351562 19.316406 65.65625 19.621094 66.035156 19.621094 C 66.414062 19.621094 66.71875 19.316406 66.71875 18.9375 C 66.71875 16.46875 65.101562 13.953125 62.375 11.996094 L 62.777344 11.996094 C 65.761719 11.996094 72.558594 7.003906 72.625 6.949219 C 73.175781 6.574219 73.839844 6.398438 74.503906 6.457031 C 74.804688 6.847656 75.460938 8.039062 74.59375 10.1875 C 74.054688 11.507812 73.179688 12.664062 72.058594 13.542969 C 71.425781 14.007812 70.917969 14.621094 70.570312 15.324219 C 70.378906 15.871094 70.246094 16.433594 70.167969 17.007812 C 69.957031 18.222656 69.785156 19.027344 69.253906 19.101562 C 68.40625 19.207031 67.648438 19.695312 67.203125 20.425781 C 65.277344 23.453125 67.386719 30.355469 67.414062 30.421875 C 68.207031 32.917969 68.070312 38.414062 63.105469 44.0625 C 60.925781 44.183594 59.453125 44.292969 59.453125 44.292969 C 59.078125 44.308594 58.78125 44.625 58.796875 45.003906 C 58.8125 45.382812 59.132812 45.679688 59.507812 45.664062 L 59.5625 45.664062 L 61.691406 45.527344 C 61.5 45.734375 61.214844 45.957031 60.960938 46.175781 Z M 60.960938 46.175781 "/>
<path style=" stroke:none;fill-rule:nonzero;fill:rgb(11.372549%,11.372549%,10.588235%);fill-opacity:1;" d="M 55.8125 23.207031 C 56.019531 23.207031 56.214844 23.113281 56.34375 22.949219 L 59.253906 19.367188 C 59.417969 19.179688 59.464844 18.914062 59.378906 18.679688 C 59.292969 18.445312 59.085938 18.277344 58.839844 18.238281 C 58.59375 18.199219 58.347656 18.300781 58.195312 18.496094 L 55.285156 22.082031 C 55.121094 22.289062 55.085938 22.570312 55.199219 22.804688 C 55.3125 23.042969 55.550781 23.195312 55.8125 23.199219 Z M 52.4375 21.359375 C 52.519531 21.375 52.601562 21.375 52.683594 21.359375 C 52.964844 21.359375 53.21875 21.183594 53.320312 20.921875 L 54.609375 17.554688 C 54.746094 17.203125 54.570312 16.804688 54.214844 16.667969 C 53.863281 16.53125 53.46875 16.707031 53.332031 17.0625 L 52.042969 20.425781 C 51.964844 20.601562 51.960938 20.800781 52.035156 20.980469 C 52.109375 21.15625 52.253906 21.296875 52.4375 21.359375 Z M 49.636719 21.078125 C 49.816406 21.0625 49.984375 20.976562 50.105469 20.835938 C 50.222656 20.699219 50.28125 20.519531 50.265625 20.335938 L 50.035156 17.417969 C 50.007812 17.039062 49.675781 16.757812 49.296875 16.789062 C 48.917969 16.816406 48.636719 17.148438 48.667969 17.527344 L 48.894531 20.445312 C 48.910156 20.628906 48.996094 20.796875 49.132812 20.914062 C 49.273438 21.035156 49.453125 21.089844 49.636719 21.078125 Z M 49.636719 21.078125 "/>
<path style=" stroke:none;fill-rule:nonzero;fill:rgb(11.372549%,11.372549%,10.588235%);fill-opacity:1;" d="M 32.460938 52.75 C 32.460938 53.28125 32.03125 53.710938 31.503906 53.710938 C 30.972656 53.710938 30.542969 53.28125 30.542969 52.75 C 30.542969 52.21875 30.972656 51.789062 31.503906 51.789062 C 32.03125 51.789062 32.460938 52.21875 32.460938 52.75 Z M 32.460938 52.75 "/>
<path style=" stroke:none;fill-rule:nonzero;fill:rgb(11.372549%,11.372549%,10.588235%);fill-opacity:1;" d="M 32.78125 56.011719 C 32.78125 56.542969 32.351562 56.972656 31.820312 56.972656 C 31.292969 56.972656 30.863281 56.542969 30.863281 56.011719 C 30.863281 55.484375 31.292969 55.054688 31.820312 55.054688 C 32.351562 55.054688 32.78125 55.484375 32.78125 56.011719 Z M 32.78125 56.011719 "/>
<path style=" stroke:none;fill-rule:nonzero;fill:rgb(11.372549%,11.372549%,10.588235%);fill-opacity:1;" d="M 35.28125 58.164062 C 35.28125 58.691406 34.851562 59.121094 34.320312 59.121094 C 33.792969 59.121094 33.363281 58.691406 33.363281 58.164062 C 33.363281 57.632812 33.792969 57.203125 34.320312 57.203125 C 34.851562 57.203125 35.28125 57.632812 35.28125 58.164062 Z M 35.28125 58.164062 "/>
<path style=" stroke:none;fill-rule:nonzero;fill:rgb(11.372549%,11.372549%,10.588235%);fill-opacity:1;" d="M 36.121094 54.824219 C 36.121094 55.355469 35.691406 55.785156 35.160156 55.785156 C 34.632812 55.785156 34.203125 55.355469 34.203125 54.824219 C 34.203125 54.292969 34.632812 53.863281 35.160156 53.863281 C 35.691406 53.863281 36.121094 54.292969 36.121094 54.824219 Z M 36.121094 54.824219 "/>
<path style=" stroke:none;fill-rule:nonzero;fill:rgb(11.372549%,11.372549%,10.588235%);fill-opacity:1;" d="M 38.785156 56.507812 C 38.785156 57.039062 38.355469 57.46875 37.828125 57.46875 C 37.296875 57.46875 36.867188 57.039062 36.867188 56.507812 C 36.867188 55.976562 37.296875 55.546875 37.828125 55.546875 C 38.355469 55.546875 38.785156 55.976562 38.785156 56.507812 Z M 38.785156 56.507812 "/>
<path style=" stroke:none;fill-rule:nonzero;fill:rgb(11.372549%,11.372549%,10.588235%);fill-opacity:1;" d="M 54.125 52.75 C 54.125 53.28125 53.695312 53.710938 53.167969 53.710938 C 52.636719 53.710938 52.207031 53.28125 52.207031 52.75 C 52.207031 52.21875 52.636719 51.789062 53.167969 51.789062 C 53.695312 51.789062 54.125 52.21875 54.125 52.75 Z M 54.125 52.75 "/>
<path style=" stroke:none;fill-rule:nonzero;fill:rgb(11.372549%,11.372549%,10.588235%);fill-opacity:1;" d="M 53.804688 56.011719 C 53.804688 56.542969 53.375 56.972656 52.847656 56.972656 C 52.316406 56.972656 51.890625 56.542969 51.890625 56.011719 C 51.890625 55.484375 52.316406 55.054688 52.847656 55.054688 C 53.375 55.054688 53.804688 55.484375 53.804688 56.011719 Z M 53.804688 56.011719 "/>
<path style=" stroke:none;fill-rule:nonzero;fill:rgb(11.372549%,11.372549%,10.588235%);fill-opacity:1;" d="M 51.304688 58.164062 C 51.304688 58.691406 50.875 59.121094 50.347656 59.121094 C 49.816406 59.121094 49.390625 58.691406 49.390625 58.164062 C 49.390625 57.632812 49.816406 57.203125 50.347656 57.203125 C 50.875 57.203125 51.304688 57.632812 51.304688 58.164062 Z M 51.304688 58.164062 "/>
<path style=" stroke:none;fill-rule:nonzero;fill:rgb(11.372549%,11.372549%,10.588235%);fill-opacity:1;" d="M 50.464844 54.824219 C 50.464844 55.355469 50.035156 55.785156 49.507812 55.785156 C 48.976562 55.785156 48.550781 55.355469 48.550781 54.824219 C 48.550781 54.292969 48.976562 53.863281 49.507812 53.863281 C 50.035156 53.863281 50.464844 54.292969 50.464844 54.824219 Z M 50.464844 54.824219 "/>
<path style=" stroke:none;fill-rule:nonzero;fill:rgb(11.372549%,11.372549%,10.588235%);fill-opacity:1;" d="M 47.800781 56.507812 C 47.800781 57.039062 47.371094 57.46875 46.84375 57.46875 C 46.3125 57.46875 45.882812 57.039062 45.882812 56.507812 C 45.882812 55.976562 46.3125 55.546875 46.84375 55.546875 C 47.371094 55.546875 47.800781 55.976562 47.800781 56.507812 Z M 47.800781 56.507812 "/>
<path style=" stroke:none;fill-rule:nonzero;fill:rgb(11.372549%,11.372549%,10.588235%);fill-opacity:1;" d="M 45.582031 36.894531 C 45.402344 36.878906 45.222656 36.9375 45.082031 37.054688 C 44.945312 37.175781 44.859375 37.34375 44.84375 37.527344 C 44.585938 39.40625 43.703125 41.140625 42.335938 42.453125 C 40.96875 41.136719 40.089844 39.398438 39.84375 37.515625 C 39.8125 37.136719 39.480469 36.855469 39.105469 36.886719 C 38.726562 36.914062 38.445312 37.246094 38.472656 37.625 C 38.804688 40.0625 40.015625 42.296875 41.878906 43.898438 C 42 43.996094 42.152344 44.050781 42.308594 44.054688 C 42.464844 44.050781 42.613281 43.996094 42.734375 43.898438 C 44.597656 42.296875 45.808594 40.0625 46.140625 37.625 C 46.167969 37.273438 45.929688 36.960938 45.582031 36.894531 Z M 33.546875 39.363281 C 33.226562 39.1875 32.824219 39.296875 32.632812 39.609375 C 32.453125 39.929688 32.214844 40.269531 31.96875 40.625 C 30.746094 42.398438 28.902344 45.085938 31.503906 47.941406 C 31.765625 48.160156 32.148438 48.152344 32.402344 47.921875 C 32.65625 47.691406 32.699219 47.308594 32.507812 47.027344 C 30.78125 45.152344 31.65625 43.53125 33.089844 41.449219 C 33.355469 41.054688 33.609375 40.6875 33.8125 40.339844 C 33.914062 40.179688 33.945312 39.980469 33.894531 39.792969 C 33.84375 39.609375 33.71875 39.453125 33.546875 39.363281 Z M 52.089844 39.609375 C 51.902344 39.28125 51.480469 39.167969 51.15625 39.359375 C 50.828125 39.546875 50.714844 39.96875 50.902344 40.296875 C 51.105469 40.644531 51.359375 41.007812 51.625 41.402344 C 53.058594 43.488281 53.933594 45.105469 52.207031 46.980469 C 52.003906 47.152344 51.917969 47.425781 51.988281 47.683594 C 52.058594 47.941406 52.269531 48.136719 52.535156 48.179688 C 52.796875 48.226562 53.0625 48.113281 53.210938 47.894531 C 55.8125 45.070312 53.96875 42.40625 52.746094 40.578125 C 52.519531 40.269531 52.28125 39.929688 52.089844 39.609375 Z M 34.933594 48.324219 C 35.050781 47.960938 34.851562 47.574219 34.492188 47.460938 C 34.128906 47.34375 33.746094 47.542969 33.628906 47.902344 C 33.101562 49.601562 33.828125 51.433594 35.371094 52.308594 C 35.699219 52.5 36.117188 52.386719 36.308594 52.058594 C 36.496094 51.730469 36.382812 51.3125 36.054688 51.121094 C 35.070312 50.570312 34.601562 49.40625 34.933594 48.324219 Z M 49.289062 52.28125 C 50.832031 51.40625 51.558594 49.574219 51.03125 47.875 C 50.914062 47.515625 50.53125 47.316406 50.167969 47.433594 C 49.808594 47.546875 49.609375 47.933594 49.726562 48.296875 C 50.042969 49.371094 49.578125 50.519531 48.605469 51.066406 C 48.277344 51.257812 48.164062 51.675781 48.351562 52.003906 C 48.542969 52.332031 48.960938 52.445312 49.289062 52.253906 Z M 44.960938 48.460938 C 44.300781 49.222656 43.339844 49.660156 42.328125 49.660156 C 41.320312 49.660156 40.359375 49.222656 39.695312 48.460938 C 39.445312 48.167969 39.003906 48.136719 38.710938 48.386719 C 38.417969 48.640625 38.386719 49.082031 38.636719 49.375 C 39.5625 50.453125 40.90625 51.074219 42.324219 51.074219 C 43.742188 51.074219 45.089844 50.453125 46.011719 49.375 C 46.265625 49.082031 46.230469 48.640625 45.9375 48.386719 C 45.648438 48.136719 45.207031 48.167969 44.953125 48.460938 Z M 24.546875 35.085938 C 24.332031 34.941406 24.054688 34.929688 23.832031 35.058594 C 23.605469 35.1875 23.472656 35.429688 23.488281 35.6875 C 23.5 35.949219 23.65625 36.175781 23.890625 36.28125 C 26.292969 37.609375 27.332031 39.5625 27.332031 40.269531 C 27.332031 40.648438 27.636719 40.953125 28.015625 40.953125 C 28.394531 40.953125 28.699219 40.648438 28.699219 40.269531 C 28.699219 38.851562 27.148438 36.519531 24.546875 35.085938 Z M 61.125 35.359375 C 60.945312 35.035156 60.539062 34.914062 60.210938 35.085938 C 57.59375 36.519531 56.023438 38.851562 56.023438 40.277344 C 56.023438 40.65625 56.328125 40.964844 56.707031 40.964844 C 57.085938 40.964844 57.390625 40.65625 57.390625 40.277344 C 57.390625 39.574219 58.433594 37.609375 60.832031 36.292969 C 60.996094 36.207031 61.117188 36.0625 61.171875 35.886719 C 61.226562 35.710938 61.210938 35.519531 61.125 35.359375 Z M 61.125 35.359375 "/>
<path style=" stroke:none;fill-rule:nonzero;fill:rgb(0%,0%,0%);fill-opacity:1;" d="M 104.160156 52.109375 L 103.324219 50.011719 L 100.136719 50.011719 L 99.308594 52.109375 L 98.777344 52.109375 L 101.4375 45.433594 L 102.035156 45.433594 L 104.695312 52.109375 Z M 100.324219 49.550781 L 103.144531 49.550781 L 101.984375 46.640625 L 101.738281 45.933594 L 101.730469 45.933594 L 101.488281 46.617188 Z M 113.375 48.84375 L 116.113281 48.84375 L 116.113281 52.109375 L 115.707031 52.109375 L 115.6875 50.945312 C 115.503906 51.347656 115.222656 51.664062 114.835938 51.882812 C 114.445312 52.101562 113.964844 52.210938 113.394531 52.210938 C 112.789062 52.210938 112.261719 52.070312 111.808594 51.789062 C 111.351562 51.511719 111 51.109375 110.757812 50.589844 C 110.511719 50.070312 110.390625 49.464844 110.390625 48.769531 C 110.390625 48.078125 110.515625 47.472656 110.769531 46.949219 C 111.019531 46.429688 111.375 46.03125 111.832031 45.753906 C 112.285156 45.472656 112.816406 45.332031 113.421875 45.332031 C 114.105469 45.332031 114.660156 45.46875 115.089844 45.738281 C 115.519531 46.007812 115.84375 46.417969 116.0625 46.972656 L 115.59375 47.210938 C 115.441406 46.75 115.179688 46.398438 114.816406 46.15625 C 114.449219 45.914062 113.984375 45.796875 113.421875 45.796875 C 112.929688 45.796875 112.492188 45.914062 112.113281 46.15625 C 111.738281 46.398438 111.445312 46.742188 111.238281 47.191406 C 111.027344 47.636719 110.921875 48.164062 110.921875 48.769531 C 110.921875 49.695312 111.144531 50.421875 111.585938 50.953125 C 112.027344 51.480469 112.636719 51.746094 113.417969 51.746094 C 113.902344 51.746094 114.3125 51.652344 114.648438 51.457031 C 114.984375 51.265625 115.234375 51.011719 115.390625 50.699219 C 115.554688 50.386719 115.636719 50.050781 115.636719 49.6875 L 115.636719 49.320312 L 113.375 49.320312 Z M 123.449219 51.644531 L 127.652344 51.644531 L 127.652344 52.109375 L 122.945312 52.109375 L 122.945312 45.433594 L 127.496094 45.433594 L 127.496094 45.898438 L 123.449219 45.898438 L 123.449219 48.476562 L 126.644531 48.476562 L 126.644531 48.953125 L 123.449219 48.953125 Z M 139.28125 45.433594 L 139.28125 52.109375 L 138.652344 52.109375 L 135.121094 46.871094 L 134.628906 45.984375 L 134.617188 45.984375 L 134.652344 46.820312 L 134.652344 52.109375 L 134.164062 52.109375 L 134.164062 45.433594 L 134.804688 45.433594 L 138.320312 50.664062 L 138.824219 51.558594 L 138.804688 50.722656 L 138.804688 45.433594 Z M 151.691406 50.417969 C 151.503906 50.984375 151.179688 51.425781 150.710938 51.738281 C 150.242188 52.050781 149.683594 52.210938 149.035156 52.210938 C 148.429688 52.210938 147.894531 52.070312 147.433594 51.789062 C 146.976562 51.511719 146.625 51.109375 146.375 50.589844 C 146.128906 50.070312 146.003906 49.464844 146.003906 48.769531 C 146.003906 48.078125 146.128906 47.472656 146.375 46.949219 C 146.625 46.429688 146.976562 46.03125 147.433594 45.753906 C 147.894531 45.472656 148.421875 45.332031 149.019531 45.332031 C 150.351562 45.332031 151.210938 45.882812 151.605469 46.980469 L 151.109375 47.210938 C 150.957031 46.738281 150.707031 46.386719 150.367188 46.148438 C 150.027344 45.914062 149.585938 45.796875 149.046875 45.796875 C 148.554688 45.796875 148.117188 45.914062 147.734375 46.15625 C 147.355469 46.398438 147.0625 46.742188 146.847656 47.191406 C 146.640625 47.636719 146.539062 48.164062 146.539062 48.769531 C 146.539062 49.378906 146.640625 49.90625 146.847656 50.351562 C 147.050781 50.800781 147.339844 51.144531 147.714844 51.386719 C 148.089844 51.625 148.527344 51.746094 149.035156 51.746094 C 149.570312 51.746094 150.027344 51.613281 150.402344 51.347656 C 150.777344 51.085938 151.039062 50.710938 151.1875 50.230469 Z M 158.730469 51.644531 L 162.9375 51.644531 L 162.9375 52.109375 L 158.222656 52.109375 L 158.222656 45.433594 L 162.773438 45.433594 L 162.773438 45.898438 L 158.730469 45.898438 L 158.730469 48.476562 L 161.929688 48.476562 L 161.929688 48.953125 L 158.730469 48.953125 Z M 179.75 45.433594 C 180.808594 45.433594 181.628906 45.714844 182.207031 46.28125 C 182.785156 46.84375 183.070312 47.65625 183.070312 48.71875 C 183.070312 49.8125 182.785156 50.652344 182.207031 51.234375 C 181.628906 51.816406 180.808594 52.109375 179.75 52.109375 L 177.652344 52.109375 L 177.652344 45.433594 Z M 179.792969 51.644531 C 180.679688 51.644531 181.359375 51.394531 181.832031 50.886719 C 182.308594 50.386719 182.546875 49.664062 182.546875 48.71875 C 182.546875 47.816406 182.308594 47.121094 181.832031 46.632812 C 181.359375 46.140625 180.679688 45.898438 179.792969 45.898438 L 178.15625 45.898438 L 178.15625 51.644531 Z M 190.308594 51.644531 L 194.511719 51.644531 L 194.511719 52.109375 L 189.804688 52.109375 L 189.804688 45.433594 L 194.351562 45.433594 L 194.351562 45.898438 L 190.308594 45.898438 L 190.308594 48.476562 L 193.503906 48.476562 L 193.503906 48.953125 L 190.308594 48.953125 Z M 212.523438 47.429688 L 211.183594 52.109375 L 210.558594 52.109375 L 208.480469 45.433594 L 209.027344 45.433594 L 210.875 51.695312 L 212.617188 45.433594 L 213.203125 45.433594 L 214.949219 51.703125 L 216.8125 45.433594 L 217.332031 45.433594 L 215.25 52.109375 L 214.628906 52.109375 L 213.28125 47.429688 L 212.914062 45.984375 L 212.898438 45.984375 Z M 224.230469 51.644531 L 228.441406 51.644531 L 228.441406 52.109375 L 223.726562 52.109375 L 223.726562 45.433594 L 228.28125 45.433594 L 228.28125 45.898438 L 224.230469 45.898438 L 224.230469 48.476562 L 227.433594 48.476562 L 227.433594 48.953125 L 224.230469 48.953125 Z M 234.949219 52.109375 L 234.949219 45.433594 L 237.300781 45.433594 C 238.03125 45.433594 238.578125 45.585938 238.9375 45.890625 C 239.292969 46.191406 239.46875 46.632812 239.46875 47.203125 C 239.46875 47.59375 239.363281 47.921875 239.152344 48.195312 C 238.941406 48.464844 238.640625 48.640625 238.253906 48.71875 L 238.253906 48.726562 C 238.683594 48.796875 239.027344 48.972656 239.277344 49.253906 C 239.53125 49.539062 239.65625 49.890625 239.65625 50.308594 C 239.65625 50.882812 239.453125 51.324219 239.046875 51.636719 C 238.636719 51.953125 238.054688 52.109375 237.300781 52.109375 Z M 235.457031 48.511719 L 237.316406 48.511719 C 238.394531 48.511719 238.9375 48.074219 238.9375 47.203125 C 238.9375 46.332031 238.394531 45.898438 237.316406 45.898438 L 235.457031 45.898438 Z M 235.457031 51.644531 L 237.402344 51.644531 C 237.96875 51.644531 238.394531 51.53125 238.683594 51.300781 C 238.972656 51.066406 239.117188 50.738281 239.117188 50.308594 C 239.117188 49.871094 238.972656 49.539062 238.683594 49.3125 C 238.394531 49.085938 237.96875 48.972656 237.402344 48.972656 L 235.457031 48.972656 Z M 256.675781 45.433594 C 257.742188 45.433594 258.5625 45.714844 259.136719 46.28125 C 259.710938 46.84375 260 47.65625 260 48.71875 C 260 49.8125 259.710938 50.652344 259.136719 51.234375 C 258.5625 51.816406 257.742188 52.109375 256.675781 52.109375 L 254.578125 52.109375 L 254.578125 45.433594 Z M 256.71875 51.644531 C 257.609375 51.644531 258.292969 51.394531 258.765625 50.886719 C 259.238281 50.386719 259.472656 49.664062 259.472656 48.71875 C 259.472656 47.816406 259.238281 47.121094 258.765625 46.632812 C 258.292969 46.140625 257.609375 45.898438 256.71875 45.898438 L 255.082031 45.898438 L 255.082031 51.644531 Z M 267.238281 51.644531 L 271.445312 51.644531 L 271.445312 52.109375 L 266.734375 52.109375 L 266.734375 45.433594 L 271.28125 45.433594 L 271.28125 45.898438 L 267.238281 45.898438 L 267.238281 48.476562 L 270.4375 48.476562 L 270.4375 48.953125 L 267.238281 48.953125 Z M 280.011719 45.332031 C 281.265625 45.332031 282.101562 45.824219 282.527344 46.808594 L 282.09375 47.160156 C 281.925781 46.683594 281.671875 46.335938 281.335938 46.121094 C 281.003906 45.902344 280.566406 45.796875 280.023438 45.796875 C 279.632812 45.796875 279.289062 45.859375 279 45.984375 C 278.714844 46.105469 278.496094 46.265625 278.34375 46.472656 C 278.191406 46.6875 278.113281 46.921875 278.113281 47.183594 C 278.113281 47.4375 278.179688 47.648438 278.308594 47.816406 C 278.433594 47.988281 278.652344 48.128906 278.957031 48.25 C 279.265625 48.367188 279.6875 48.472656 280.226562 48.570312 C 281.09375 48.71875 281.707031 48.933594 282.074219 49.21875 C 282.433594 49.5 282.613281 49.886719 282.613281 50.390625 C 282.613281 50.746094 282.507812 51.0625 282.304688 51.34375 C 282.097656 51.617188 281.804688 51.828125 281.421875 51.976562 C 281.039062 52.132812 280.601562 52.210938 280.113281 52.210938 C 279.414062 52.210938 278.824219 52.070312 278.34375 51.789062 C 277.859375 51.511719 277.53125 51.117188 277.359375 50.613281 L 277.804688 50.265625 C 277.9375 50.746094 278.207031 51.113281 278.613281 51.363281 C 279.019531 51.621094 279.523438 51.746094 280.125 51.746094 C 280.703125 51.746094 281.171875 51.628906 281.539062 51.394531 C 281.910156 51.15625 282.09375 50.832031 282.09375 50.417969 C 282.09375 50.0625 281.941406 49.78125 281.640625 49.574219 C 281.34375 49.359375 280.824219 49.191406 280.082031 49.066406 C 279.457031 48.957031 278.964844 48.824219 278.597656 48.671875 C 278.238281 48.515625 277.976562 48.324219 277.820312 48.09375 C 277.660156 47.867188 277.582031 47.578125 277.582031 47.234375 C 277.582031 46.890625 277.679688 46.574219 277.878906 46.285156 C 278.074219 45.992188 278.359375 45.761719 278.726562 45.59375 C 279.09375 45.421875 279.519531 45.332031 280.011719 45.332031 Z M 289.75 45.433594 L 289.75 52.109375 L 289.246094 52.109375 L 289.246094 45.433594 Z M 299.460938 48.84375 L 302.191406 48.84375 L 302.191406 52.109375 L 301.789062 52.109375 L 301.773438 50.945312 C 301.589844 51.347656 301.304688 51.664062 300.914062 51.882812 C 300.53125 52.101562 300.050781 52.210938 299.480469 52.210938 C 298.875 52.210938 298.34375 52.070312 297.886719 51.789062 C 297.4375 51.511719 297.085938 51.109375 296.84375 50.589844 C 296.597656 50.070312 296.476562 49.464844 296.476562 48.769531 C 296.476562 48.078125 296.601562 47.472656 296.847656 46.949219 C 297.105469 46.429688 297.460938 46.03125 297.917969 45.753906 C 298.371094 45.472656 298.902344 45.332031 299.507812 45.332031 C 300.1875 45.332031 300.742188 45.46875 301.175781 45.738281 C 301.605469 46.007812 301.929688 46.417969 302.140625 46.972656 L 301.679688 47.210938 C 301.527344 46.75 301.265625 46.398438 300.902344 46.15625 C 300.53125 45.914062 300.066406 45.796875 299.507812 45.796875 C 299.007812 45.796875 298.574219 45.914062 298.199219 46.15625 C 297.824219 46.398438 297.53125 46.742188 297.316406 47.191406 C 297.113281 47.636719 297.007812 48.164062 297.007812 48.769531 C 297.007812 49.695312 297.230469 50.421875 297.671875 50.953125 C 298.109375 51.480469 298.71875 51.746094 299.503906 51.746094 C 299.984375 51.746094 300.390625 51.652344 300.726562 51.457031 C 301.0625 51.265625 301.3125 51.011719 301.476562 50.699219 C 301.640625 50.386719 301.722656 50.050781 301.722656 49.6875 L 301.722656 49.320312 L 299.460938 49.320312 Z M 314.144531 45.433594 L 314.144531 52.109375 L 313.515625 52.109375 L 309.984375 46.871094 L 309.492188 45.984375 L 309.480469 45.984375 L 309.507812 46.820312 L 309.507812 52.109375 L 309.023438 52.109375 L 309.023438 45.433594 L 309.660156 45.433594 L 313.183594 50.664062 L 313.6875 51.558594 L 313.667969 50.722656 L 313.667969 45.433594 Z M 314.144531 45.433594 "/>
</g>
</svg>
