<?xml version="1.0" encoding="UTF-8"?>
<svg xmlns="http://www.w3.org/2000/svg" xmlns:xlink="http://www.w3.org/1999/xlink" width="px" height="px" viewBox="0 0 225 225" version="1.1">
<g id="surface1">
<rect x="0" y="0" width="225" height="225" style="fill:rgb(100%,100%,100%);fill-opacity:1;stroke:none;"/>
<path style=" stroke:none;fill-rule:nonzero;fill:rgb(0%,0%,0%);fill-opacity:1;" d="M 84.90625 112.113281 C 84.789062 111.804688 84.730469 111.382812 84.730469 110.839844 C 84.730469 110.296875 84.914062 108.6875 85.285156 106.011719 C 85.65625 103.34375 85.839844 101.199219 85.839844 99.582031 C 85.839844 99.203125 85.8125 98.683594 85.761719 98.023438 C 86.71875 98.074219 87.320312 98.300781 87.5625 98.699219 C 87.691406 98.933594 87.773438 99.15625 87.808594 99.363281 C 87.84375 99.574219 87.863281 99.902344 87.863281 100.355469 C 87.863281 100.796875 87.660156 102.484375 87.25 105.414062 C 86.835938 108.34375 86.625 110.433594 86.613281 111.679688 C 86.675781 111.660156 86.789062 111.652344 86.953125 111.652344 C 89.691406 111.652344 91.730469 111.464844 93.070312 111.082031 C 92.980469 111.816406 92.730469 112.386719 92.324219 112.792969 C 91.910156 113.199219 91.394531 113.402344 90.777344 113.402344 C 90.597656 113.402344 90.050781 113.363281 89.136719 113.28125 C 88.214844 113.199219 87.324219 113.160156 86.464844 113.160156 C 85.605469 113.160156 84.742188 113.238281 83.875 113.402344 C 84.046875 112.84375 84.390625 112.414062 84.90625 112.113281 Z M 97.398438 105.820312 C 97.035156 106.453125 96.753906 107.105469 96.554688 107.773438 C 96.359375 108.433594 96.257812 109.070312 96.257812 109.6875 C 96.257812 110.292969 96.394531 110.808594 96.664062 111.230469 C 96.9375 111.65625 97.324219 111.871094 97.832031 111.871094 C 98.546875 111.871094 99.210938 111.480469 99.824219 110.703125 C 100.449219 109.917969 100.929688 108.972656 101.261719 107.867188 C 101.597656 106.757812 101.765625 105.730469 101.765625 104.789062 C 101.765625 103.847656 101.730469 103.078125 101.65625 102.46875 C 101.953125 102.441406 102.144531 102.429688 102.226562 102.429688 C 103.300781 102.429688 103.839844 102.980469 103.839844 104.085938 C 103.839844 104.320312 103.6875 105.296875 103.378906 107.015625 C 103.082031 108.730469 102.929688 110.105469 102.929688 111.136719 C 102.929688 112.167969 103.125 113.082031 103.515625 113.878906 C 102.71875 113.714844 102.140625 113.363281 101.777344 112.820312 C 101.417969 112.285156 101.234375 111.511719 101.234375 110.5 C 101.234375 110.320312 101.261719 109.976562 101.316406 109.46875 C 100.972656 110.671875 100.371094 111.640625 99.511719 112.371094 C 98.644531 113.113281 97.800781 113.484375 96.976562 113.484375 C 96.144531 113.484375 95.476562 113.167969 94.96875 112.535156 C 94.464844 111.910156 94.210938 111.046875 94.210938 109.945312 C 94.210938 108.832031 94.417969 107.746094 94.832031 106.6875 C 95.242188 105.628906 95.859375 104.71875 96.691406 103.949219 C 97.515625 103.171875 98.441406 102.78125 99.472656 102.78125 C 99.914062 102.78125 100.402344 102.871094 100.9375 103.054688 C 100.1875 103.242188 99.5 103.589844 98.875 104.097656 C 98.261719 104.605469 97.769531 105.179688 97.398438 105.820312 Z M 116.507812 100.054688 L 116.523438 100.285156 C 116.523438 100.765625 116.339844 102.339844 115.980469 105.007812 C 115.617188 107.664062 115.4375 109.890625 115.4375 111.679688 C 115.4375 112.476562 115.476562 113.09375 115.558594 113.539062 C 115.25 113.566406 115.085938 113.578125 115.058594 113.578125 C 114.488281 113.578125 114.0625 113.449219 113.78125 113.1875 C 113.511719 112.921875 113.375 112.5 113.375 111.910156 C 113.375 111.324219 113.585938 109.523438 114.011719 106.511719 C 114.429688 103.511719 114.636719 101.367188 114.636719 100.082031 C 114.636719 98.800781 114.550781 97.957031 114.378906 97.558594 C 114.785156 97.613281 115.160156 97.773438 115.503906 98.035156 C 115.855469 98.289062 116.121094 98.632812 116.292969 99.066406 C 117.257812 98.550781 118.335938 98.292969 119.519531 98.292969 C 120.695312 98.292969 121.621094 98.65625 122.300781 99.378906 C 122.976562 100.109375 123.316406 101.003906 123.316406 102.0625 C 123.316406 103.417969 122.824219 104.640625 121.839844 105.726562 C 120.851562 106.800781 119.523438 107.339844 117.851562 107.339844 C 117.472656 107.339844 117.125 107.316406 116.804688 107.273438 L 116.753906 106.660156 C 117.601562 106.660156 118.34375 106.535156 118.976562 106.28125 C 119.609375 106.027344 120.089844 105.695312 120.414062 105.277344 C 121.054688 104.464844 121.378906 103.515625 121.378906 102.429688 C 121.378906 101.644531 121.128906 100.988281 120.632812 100.464844 C 120.132812 99.9375 119.410156 99.675781 118.460938 99.675781 C 117.890625 99.675781 117.242188 99.804688 116.507812 100.054688 Z M 127.523438 105.820312 C 127.152344 106.453125 126.867188 107.105469 126.667969 107.773438 C 126.476562 108.433594 126.382812 109.070312 126.382812 109.6875 C 126.382812 110.292969 126.519531 110.808594 126.789062 111.230469 C 127.0625 111.65625 127.449219 111.871094 127.957031 111.871094 C 128.660156 111.871094 129.324219 111.480469 129.949219 110.703125 C 130.566406 109.917969 131.039062 108.972656 131.375 107.867188 C 131.71875 106.757812 131.890625 105.730469 131.890625 104.789062 C 131.890625 103.847656 131.847656 103.078125 131.765625 102.46875 C 132.074219 102.441406 132.265625 102.429688 132.335938 102.429688 C 133.414062 102.429688 133.949219 102.980469 133.949219 104.085938 C 133.949219 104.320312 133.800781 105.296875 133.503906 107.015625 C 133.195312 108.730469 133.042969 110.105469 133.042969 111.136719 C 133.042969 112.167969 133.238281 113.082031 133.625 113.878906 C 132.828125 113.714844 132.25 113.363281 131.890625 112.820312 C 131.527344 112.285156 131.347656 111.511719 131.347656 110.5 C 131.347656 110.320312 131.375 109.976562 131.429688 109.46875 C 131.085938 110.671875 130.484375 111.640625 129.625 112.371094 C 128.765625 113.113281 127.917969 113.484375 127.085938 113.484375 C 126.253906 113.484375 125.585938 113.167969 125.082031 112.535156 C 124.574219 111.910156 124.320312 111.046875 124.320312 109.945312 C 124.320312 108.832031 124.527344 107.746094 124.945312 106.6875 C 125.351562 105.628906 125.972656 104.71875 126.804688 103.949219 C 127.636719 103.171875 128.5625 102.78125 129.582031 102.78125 C 130.027344 102.78125 130.515625 102.871094 131.046875 103.054688 C 130.296875 103.242188 129.613281 103.589844 129 104.097656 C 128.375 104.605469 127.882812 105.179688 127.523438 105.820312 Z M 145.683594 104.992188 C 145.683594 105.570312 145.5625 106.597656 145.316406 108.070312 C 145.074219 109.546875 144.949219 110.621094 144.949219 111.300781 C 144.949219 111.96875 145.03125 112.453125 145.195312 112.75 C 145.359375 113.050781 145.636719 113.304688 146.035156 113.511719 C 145.863281 113.527344 145.628906 113.539062 145.332031 113.539062 C 144.472656 113.539062 143.859375 113.375 143.5 113.050781 C 143.136719 112.722656 142.957031 112.144531 142.957031 111.3125 C 142.957031 110.84375 143.082031 109.898438 143.335938 108.480469 C 143.589844 107.050781 143.714844 106 143.714844 105.332031 C 143.714844 104.5 143.464844 104.085938 142.957031 104.085938 C 142.144531 104.085938 141.300781 104.796875 140.433594 106.226562 C 139.566406 107.65625 139.132812 109.378906 139.132812 111.394531 C 139.132812 112.191406 139.171875 112.808594 139.253906 113.253906 C 138.917969 113.28125 138.71875 113.292969 138.65625 113.292969 C 137.546875 113.292969 136.988281 112.746094 136.988281 111.652344 C 136.988281 111.398438 137.125 110.425781 137.394531 108.738281 C 137.65625 107.035156 137.789062 105.683594 137.789062 104.679688 C 137.789062 103.667969 137.679688 102.742188 137.464844 101.902344 C 138.214844 102.191406 138.738281 102.601562 139.039062 103.136719 C 139.335938 103.675781 139.484375 104.292969 139.484375 104.980469 C 139.484375 105.667969 139.40625 106.46875 139.253906 107.378906 C 139.671875 105.953125 140.324219 104.75 141.222656 103.773438 C 142.105469 102.785156 142.9375 102.292969 143.714844 102.292969 C 145.027344 102.292969 145.683594 103.195312 145.683594 104.992188 Z M 154.785156 102.851562 C 154.785156 103.375 154.683594 103.742188 154.484375 103.949219 C 154.277344 104.148438 153.980469 104.246094 153.589844 104.246094 L 152.222656 104.246094 C 152.167969 104.582031 152.035156 105.367188 151.828125 106.605469 C 151.394531 108.957031 151.175781 110.734375 151.175781 111.9375 C 151.175781 113.140625 151.265625 113.941406 151.449219 114.339844 C 150.722656 114.066406 150.207031 113.664062 149.902344 113.132812 C 149.601562 112.589844 149.453125 111.933594 149.453125 111.164062 C 149.453125 110.386719 149.5 109.65625 149.589844 108.96875 C 149.6875 108.28125 149.824219 107.476562 149.996094 106.554688 C 150.175781 105.621094 150.304688 104.878906 150.375 104.328125 C 149.652344 104.429688 148.941406 104.632812 148.246094 104.9375 C 148.230469 104.730469 148.21875 104.546875 148.21875 104.382812 C 148.21875 103.777344 148.417969 103.371094 148.816406 103.164062 C 149.222656 102.953125 149.804688 102.851562 150.566406 102.851562 C 150.65625 101.910156 150.703125 101.210938 150.703125 100.746094 C 150.703125 100.285156 150.695312 99.914062 150.6875 99.636719 C 150.6875 99.355469 150.6875 99.148438 150.6875 99.011719 C 151.265625 99.101562 151.714844 99.359375 152.03125 99.785156 C 152.347656 100.199219 152.503906 100.78125 152.503906 101.519531 C 152.503906 101.902344 152.472656 102.363281 152.410156 102.90625 C 153.515625 102.90625 154.292969 102.71875 154.742188 102.347656 C 154.769531 102.527344 154.785156 102.695312 154.785156 102.851562 Z M 158.351562 107.378906 C 158.765625 105.953125 159.410156 104.75 160.277344 103.773438 C 161.144531 102.785156 161.960938 102.292969 162.71875 102.292969 C 163.476562 102.292969 164.015625 102.523438 164.332031 102.984375 C 164.648438 103.445312 164.808594 104.074219 164.808594 104.871094 C 164.808594 105.65625 164.6875 106.765625 164.441406 108.195312 C 164.199219 109.632812 164.074219 110.675781 164.074219 111.328125 C 164.074219 111.976562 164.15625 112.453125 164.320312 112.75 C 164.480469 113.050781 164.757812 113.304688 165.148438 113.511719 C 164.984375 113.527344 164.753906 113.539062 164.453125 113.539062 C 163.640625 113.539062 163.039062 113.371094 162.652344 113.035156 C 162.269531 112.703125 162.082031 112.128906 162.082031 111.3125 C 162.082031 110.84375 162.207031 109.898438 162.460938 108.480469 C 162.714844 107.050781 162.839844 106 162.839844 105.332031 C 162.839844 104.5 162.546875 104.085938 161.960938 104.085938 C 161.617188 104.085938 161.234375 104.265625 160.820312 104.628906 C 160.402344 104.980469 160 105.464844 159.613281 106.078125 C 159.234375 106.691406 158.914062 107.476562 158.648438 108.425781 C 158.386719 109.363281 158.257812 110.292969 158.257812 111.207031 C 158.257812 112.128906 158.296875 112.808594 158.378906 113.253906 C 158.070312 113.28125 157.898438 113.292969 157.863281 113.292969 C 157.265625 113.292969 156.828125 113.167969 156.546875 112.914062 C 156.257812 112.660156 156.113281 112.261719 156.113281 111.71875 C 156.113281 111.1875 156.226562 110.152344 156.453125 108.613281 C 157.121094 103.902344 157.457031 100.328125 157.457031 97.886719 C 157.457031 96.78125 157.382812 96.042969 157.238281 95.660156 C 157.972656 95.933594 158.488281 96.324219 158.785156 96.839844 C 159.082031 97.367188 159.234375 98.082031 159.234375 98.984375 C 159.234375 99.617188 159.105469 100.945312 158.851562 102.972656 C 158.609375 104.996094 158.441406 106.46875 158.351562 107.378906 Z M 172.714844 103.285156 C 171.957031 103.285156 171.3125 103.71875 170.789062 104.585938 C 170.253906 105.464844 169.902344 106.488281 169.730469 107.664062 L 170.261719 107.664062 C 170.929688 107.664062 171.511719 107.570312 172.011719 107.378906 C 172.5 107.191406 172.878906 106.945312 173.148438 106.648438 C 173.65625 106.058594 173.910156 105.398438 173.910156 104.667969 C 173.910156 104.25 173.808594 103.917969 173.609375 103.664062 C 173.410156 103.410156 173.113281 103.285156 172.714844 103.285156 Z M 175.386719 110.976562 C 174.808594 111.925781 174.171875 112.589844 173.476562 112.96875 C 172.777344 113.347656 171.96875 113.539062 171.046875 113.539062 C 170.132812 113.539062 169.332031 113.132812 168.644531 112.316406 C 167.957031 111.511719 167.617188 110.375 167.617188 108.898438 C 167.617188 107.226562 168.066406 105.734375 168.972656 104.421875 C 169.414062 103.789062 169.992188 103.273438 170.707031 102.878906 C 171.421875 102.488281 172.207031 102.292969 173.066406 102.292969 C 174.964844 102.292969 175.917969 103.210938 175.917969 105.046875 C 175.917969 106.152344 175.492188 107.015625 174.640625 107.636719 C 173.78125 108.261719 172.792969 108.574219 171.671875 108.574219 C 170.921875 108.574219 170.246094 108.507812 169.648438 108.371094 C 169.640625 108.496094 169.636719 108.691406 169.636719 108.953125 C 169.636719 111.195312 170.300781 112.316406 171.628906 112.316406 C 172.878906 112.316406 173.894531 111.699219 174.683594 110.460938 C 175.152344 110.523438 175.386719 110.695312 175.386719 110.976562 Z M 175.007812 100.871094 C 175 101.003906 174.929688 101.136719 174.804688 101.261719 C 174.6875 101.378906 174.550781 101.457031 174.398438 101.492188 C 173.945312 100.925781 173.363281 100.363281 172.648438 99.8125 C 171.933594 99.25 171.207031 98.859375 170.464844 98.632812 C 170.492188 97.972656 170.796875 97.453125 171.386719 97.070312 C 172.054688 97.335938 172.746094 97.859375 173.460938 98.644531 C 174.175781 99.421875 174.691406 100.164062 175.007812 100.871094 Z M 180.609375 107.082031 C 181.0625 105.4375 181.609375 104.226562 182.25 103.445312 C 182.890625 102.667969 183.488281 102.28125 184.039062 102.28125 C 184.59375 102.28125 185.003906 102.484375 185.273438 102.890625 C 185.554688 103.308594 185.695312 103.832031 185.695312 104.464844 C 185.695312 105.097656 185.53125 105.644531 185.207031 106.105469 C 184.871094 106.566406 184.390625 106.796875 183.757812 106.796875 C 183.558594 106.796875 183.398438 106.785156 183.28125 106.757812 C 183.714844 106.132812 183.933594 105.5 183.933594 104.859375 C 183.933594 104.40625 183.746094 104.179688 183.375 104.179688 C 183.085938 104.179688 182.78125 104.347656 182.453125 104.679688 C 182.121094 105.023438 181.804688 105.5 181.503906 106.105469 C 181.195312 106.71875 180.945312 107.511719 180.746094 108.480469 C 180.535156 109.457031 180.433594 110.507812 180.433594 111.640625 C 180.433594 111.765625 180.464844 112.304688 180.527344 113.253906 C 180.203125 113.28125 180.011719 113.292969 179.957031 113.292969 C 178.847656 113.292969 178.289062 112.746094 178.289062 111.652344 C 178.289062 111.398438 178.425781 110.425781 178.695312 108.738281 C 178.957031 107.035156 179.089844 105.683594 179.089844 104.679688 C 179.089844 103.667969 178.980469 102.742188 178.765625 101.902344 C 179.515625 102.191406 180.039062 102.601562 180.339844 103.136719 C 180.636719 103.675781 180.785156 104.304688 180.785156 105.019531 C 180.785156 105.734375 180.726562 106.421875 180.609375 107.082031 Z M 191.800781 103.285156 C 191.039062 103.285156 190.394531 103.71875 189.859375 104.585938 C 189.335938 105.464844 188.988281 106.488281 188.816406 107.664062 L 189.34375 107.664062 C 190.011719 107.664062 190.597656 107.570312 191.09375 107.378906 C 191.582031 107.191406 191.960938 106.945312 192.234375 106.648438 C 192.738281 106.058594 192.992188 105.398438 192.992188 104.667969 C 192.992188 104.25 192.894531 103.917969 192.695312 103.664062 C 192.496094 103.410156 192.195312 103.285156 191.800781 103.285156 Z M 194.472656 110.976562 C 193.890625 111.925781 193.253906 112.589844 192.558594 112.96875 C 191.863281 113.347656 191.054688 113.539062 190.128906 113.539062 C 189.21875 113.539062 188.417969 113.132812 187.730469 112.316406 C 187.042969 111.511719 186.699219 110.375 186.699219 108.898438 C 186.699219 107.226562 187.152344 105.734375 188.054688 104.421875 C 188.5 103.789062 189.078125 103.273438 189.792969 102.878906 C 190.507812 102.488281 191.292969 102.292969 192.152344 102.292969 C 194.050781 102.292969 195 103.210938 195 105.046875 C 195 106.152344 194.574219 107.015625 193.726562 107.636719 C 192.867188 108.261719 191.875 108.574219 190.753906 108.574219 C 190.003906 108.574219 189.332031 108.507812 188.734375 108.371094 C 188.726562 108.496094 188.71875 108.691406 188.71875 108.953125 C 188.71875 111.195312 189.382812 112.316406 190.714844 112.316406 C 191.960938 112.316406 192.980469 111.699219 193.765625 110.460938 C 194.234375 110.523438 194.472656 110.695312 194.472656 110.976562 Z M 194.472656 110.976562 "/>
<path style=" stroke:none;fill-rule:nonzero;fill:rgb(11.372549%,11.372549%,10.588235%);fill-opacity:1;" d="M 49.164062 110.585938 L 49.164062 110.554688 C 48.796875 109.90625 48.1875 109.4375 47.46875 109.246094 L 47.402344 109.246094 C 47.011719 109.125 46.609375 109.050781 46.199219 109.019531 C 45.097656 108.871094 44.039062 108.480469 43.105469 107.875 C 42.941406 107.777344 42.730469 107.824219 42.621094 107.980469 C 42.515625 108.140625 42.550781 108.355469 42.703125 108.46875 C 43.011719 108.667969 43.332031 108.847656 43.664062 109.003906 C 43.664062 109.054688 43.621094 109.101562 43.605469 109.152344 C 43.167969 110.703125 44.058594 112.316406 45.601562 112.765625 C 45.882812 112.847656 46.171875 112.886719 46.460938 112.886719 C 47.339844 112.890625 48.175781 112.488281 48.714844 111.789062 C 48.757812 112.273438 48.730469 112.757812 48.628906 113.234375 C 48.589844 113.328125 48.59375 113.433594 48.636719 113.523438 C 48.679688 113.617188 48.757812 113.683594 48.855469 113.714844 C 48.894531 113.722656 48.933594 113.722656 48.972656 113.714844 C 49.125 113.714844 49.261719 113.617188 49.3125 113.46875 C 49.46875 112.824219 49.503906 112.15625 49.421875 111.496094 C 49.398438 111.179688 49.308594 110.871094 49.164062 110.585938 Z M 47.011719 109.871094 C 47.03125 109.953125 47.03125 110.039062 47.011719 110.121094 C 46.917969 110.457031 46.570312 110.652344 46.234375 110.558594 C 45.898438 110.464844 45.703125 110.117188 45.796875 109.777344 C 45.808594 109.75 45.824219 109.722656 45.839844 109.699219 L 46.128906 109.730469 C 46.429688 109.753906 46.730469 109.800781 47.023438 109.875 Z M 47.464844 111.914062 C 46.949219 112.179688 46.347656 112.238281 45.792969 112.070312 C 44.621094 111.730469 43.945312 110.511719 44.28125 109.339844 L 44.28125 109.285156 C 44.546875 109.386719 44.820312 109.476562 45.097656 109.546875 L 45.097656 109.578125 C 44.941406 110.066406 45.078125 110.597656 45.445312 110.953125 C 45.816406 111.308594 46.355469 111.425781 46.835938 111.253906 C 47.320312 111.082031 47.660156 110.648438 47.71875 110.140625 C 48.007812 110.285156 48.253906 110.503906 48.433594 110.773438 C 48.265625 111.261719 47.925781 111.667969 47.476562 111.914062 Z M 60.503906 109.144531 C 60.503906 109.089844 60.464844 109.046875 60.445312 108.996094 C 60.777344 108.839844 61.101562 108.660156 61.410156 108.460938 C 61.5625 108.34375 61.597656 108.128906 61.488281 107.972656 C 61.382812 107.8125 61.167969 107.765625 61.003906 107.863281 C 60.070312 108.46875 59.015625 108.863281 57.910156 109.007812 C 57.5 109.039062 57.09375 109.117188 56.699219 109.234375 L 56.640625 109.234375 C 55.917969 109.425781 55.304688 109.902344 54.9375 110.554688 L 54.9375 110.578125 C 54.785156 110.871094 54.699219 111.1875 54.675781 111.515625 C 54.597656 112.175781 54.632812 112.84375 54.789062 113.488281 C 54.835938 113.636719 54.976562 113.734375 55.128906 113.734375 C 55.246094 113.734375 55.359375 113.679688 55.429688 113.585938 C 55.496094 113.488281 55.515625 113.363281 55.476562 113.253906 C 55.375 112.777344 55.34375 112.292969 55.382812 111.808594 C 55.925781 112.503906 56.757812 112.910156 57.640625 112.90625 C 57.929688 112.90625 58.21875 112.867188 58.496094 112.785156 C 59.25 112.570312 59.882812 112.066406 60.257812 111.382812 C 60.636719 110.699219 60.722656 109.894531 60.503906 109.144531 Z M 57.953125 109.730469 L 58.242188 109.699219 C 58.257812 109.722656 58.273438 109.75 58.285156 109.777344 C 58.378906 110.109375 58.1875 110.453125 57.859375 110.550781 C 57.65625 110.613281 57.4375 110.566406 57.277344 110.425781 C 57.117188 110.289062 57.039062 110.078125 57.074219 109.871094 C 57.363281 109.800781 57.660156 109.753906 57.957031 109.730469 Z M 58.304688 112.070312 C 57.75 112.238281 57.148438 112.179688 56.628906 111.914062 C 56.175781 111.667969 55.835938 111.257812 55.667969 110.769531 C 55.847656 110.503906 56.09375 110.285156 56.378906 110.140625 C 56.386719 110.199219 56.398438 110.257812 56.414062 110.316406 C 56.585938 110.890625 57.113281 111.28125 57.707031 111.28125 C 58.121094 111.273438 58.507812 111.074219 58.753906 110.746094 C 59.003906 110.414062 59.089844 109.992188 58.984375 109.589844 L 58.984375 109.5625 C 59.261719 109.488281 59.535156 109.402344 59.800781 109.296875 L 59.800781 109.355469 C 60.128906 110.515625 59.460938 111.726562 58.304688 112.070312 Z M 58.304688 112.070312 "/>
<path style=" stroke:none;fill-rule:nonzero;fill:rgb(11.372549%,11.372549%,10.588235%);fill-opacity:1;" d="M 50.285156 110.019531 C 50.207031 108.9375 49.324219 108.25 47.808594 108.132812 C 47.007812 108.027344 46.238281 107.75 45.554688 107.320312 C 45.390625 107.210938 45.164062 107.253906 45.054688 107.421875 C 44.945312 107.585938 44.988281 107.8125 45.15625 107.921875 C 45.941406 108.421875 46.828125 108.738281 47.753906 108.851562 C 48.402344 108.898438 49.5 109.125 49.566406 110.066406 C 49.582031 110.257812 49.738281 110.40625 49.929688 110.40625 L 49.953125 110.40625 C 50.148438 110.390625 50.296875 110.21875 50.285156 110.019531 Z M 56.53125 108.851562 C 57.453125 108.738281 58.34375 108.421875 59.128906 107.921875 C 59.292969 107.8125 59.339844 107.585938 59.230469 107.421875 C 59.117188 107.253906 58.894531 107.210938 58.726562 107.320312 C 58.046875 107.757812 57.277344 108.039062 56.472656 108.148438 C 54.976562 108.265625 54.066406 108.953125 53.996094 110.035156 C 53.988281 110.128906 54.019531 110.222656 54.082031 110.296875 C 54.144531 110.367188 54.234375 110.414062 54.332031 110.417969 L 54.355469 110.417969 C 54.546875 110.417969 54.703125 110.273438 54.714844 110.082031 C 54.785156 109.109375 55.898438 108.902344 56.53125 108.851562 Z M 44.660156 106.34375 C 44.742188 106.449219 44.871094 106.5 45 106.480469 C 45.132812 106.460938 45.238281 106.371094 45.285156 106.246094 C 45.332031 106.125 45.304688 105.984375 45.21875 105.886719 L 43.683594 104 C 43.601562 103.898438 43.472656 103.84375 43.34375 103.863281 C 43.214844 103.882812 43.105469 103.972656 43.058594 104.097656 C 43.015625 104.21875 43.039062 104.359375 43.125 104.457031 Z M 46.277344 105.300781 C 46.332031 105.4375 46.464844 105.53125 46.613281 105.53125 C 46.730469 105.53125 46.839844 105.472656 46.90625 105.378906 C 46.972656 105.28125 46.988281 105.160156 46.949219 105.050781 L 46.273438 103.277344 C 46.199219 103.09375 45.992188 103 45.804688 103.074219 C 45.621094 103.144531 45.527344 103.351562 45.597656 103.539062 Z M 48.203125 105.351562 C 48.390625 105.351562 48.546875 105.207031 48.5625 105.019531 L 48.683594 103.492188 C 48.691406 103.394531 48.660156 103.300781 48.597656 103.226562 C 48.535156 103.152344 48.445312 103.109375 48.351562 103.101562 C 48.253906 103.09375 48.160156 103.121094 48.085938 103.183594 C 48.011719 103.246094 47.96875 103.335938 47.960938 103.433594 L 47.839844 104.96875 C 47.832031 105.066406 47.867188 105.164062 47.9375 105.238281 C 48.003906 105.3125 48.101562 105.351562 48.203125 105.351562 Z M 48.203125 105.351562 "/>
<path style=" stroke:none;fill-rule:nonzero;fill:rgb(11.372549%,11.372549%,10.588235%);fill-opacity:1;" d="M 73.851562 117.769531 C 71.972656 117.175781 67.558594 117.226562 63.96875 117.390625 C 66.375 114.355469 66.375 111.417969 65.945312 110.039062 C 65.617188 109.003906 65.113281 106.398438 65.757812 105.382812 C 65.878906 105.175781 66.089844 105.039062 66.324219 105.011719 C 67.171875 104.902344 67.328125 104.019531 67.445312 103.316406 C 67.480469 103.066406 67.535156 102.816406 67.613281 102.578125 C 67.761719 102.316406 67.960938 102.09375 68.203125 101.917969 C 68.875 101.378906 69.402344 100.679688 69.730469 99.882812 C 70.496094 98 69.472656 97.074219 69.429688 97.035156 C 69.390625 97.003906 69.34375 96.984375 69.292969 96.972656 L 69.226562 96.972656 C 68.441406 96.765625 67.601562 96.894531 66.914062 97.324219 C 66.585938 97.480469 66.179688 97.675781 65.585938 97.925781 C 64.300781 98.570312 62.746094 98.316406 61.734375 97.289062 C 59.570312 95.210938 58.046875 94.609375 52.074219 94.609375 C 46.105469 94.609375 44.597656 95.214844 42.453125 97.289062 C 41.441406 98.316406 39.886719 98.570312 38.601562 97.925781 C 38.15625 97.738281 37.710938 97.535156 37.273438 97.324219 C 36.585938 96.894531 35.746094 96.765625 34.960938 96.972656 L 34.894531 96.972656 C 34.84375 96.984375 34.796875 97.003906 34.757812 97.035156 C 34.714844 97.074219 33.691406 97.996094 34.457031 99.882812 C 34.785156 100.679688 35.3125 101.378906 35.984375 101.917969 C 36.226562 102.09375 36.425781 102.316406 36.574219 102.578125 C 36.625 102.828125 36.652344 103.082031 36.65625 103.335938 C 36.773438 104.042969 36.925781 104.917969 37.777344 105.03125 C 38.011719 105.058594 38.222656 105.195312 38.34375 105.402344 C 38.988281 106.417969 38.484375 109.023438 38.15625 110.058594 C 37.71875 111.4375 37.738281 114.386719 40.132812 117.410156 C 36.542969 117.246094 32.128906 117.195312 30.25 117.789062 C 30.0625 117.851562 29.957031 118.054688 30.015625 118.246094 C 30.078125 118.433594 30.28125 118.539062 30.472656 118.476562 C 32.441406 117.851562 37.6875 117.996094 40.664062 118.160156 L 40.78125 118.160156 L 41.09375 118.492188 C 37.398438 118.546875 34.894531 118.800781 33.636719 119.253906 C 33.511719 119.292969 33.421875 119.398438 33.394531 119.527344 C 33.371094 119.65625 33.417969 119.789062 33.519531 119.875 C 33.621094 119.957031 33.761719 119.980469 33.882812 119.929688 C 35.125 119.484375 37.875 119.234375 41.851562 119.203125 C 42.019531 119.347656 42.191406 119.488281 42.367188 119.628906 C 39.253906 119.800781 34.1875 120.210938 32.261719 121.070312 C 32.09375 121.160156 32.023438 121.363281 32.101562 121.535156 C 32.175781 121.707031 32.371094 121.792969 32.550781 121.730469 C 34.558594 120.851562 40.335938 120.460938 43.242188 120.3125 L 43.722656 120.65625 L 43.769531 120.691406 C 40.742188 120.984375 38.675781 121.363281 37.617188 121.828125 C 37.449219 121.914062 37.378906 122.117188 37.457031 122.289062 C 37.53125 122.460938 37.726562 122.546875 37.90625 122.484375 C 38.902344 122.046875 41.007812 121.671875 44.023438 121.390625 C 44.011719 122.277344 44.121094 123.164062 44.351562 124.023438 C 45.136719 126.105469 46.210938 126.613281 47.460938 126.71875 C 47.640625 127.058594 47.890625 127.355469 48.191406 127.589844 C 47.519531 128.199219 46.964844 128.929688 46.5625 129.742188 C 46.488281 129.925781 46.582031 130.136719 46.769531 130.207031 C 46.953125 130.28125 47.164062 130.1875 47.234375 130 C 47.363281 129.664062 47.753906 129.039062 48.816406 127.984375 C 49.125 128.140625 49.445312 128.265625 49.78125 128.359375 C 49.546875 128.882812 49.398438 129.441406 49.335938 130.011719 C 49.332031 130.105469 49.363281 130.199219 49.429688 130.269531 C 49.492188 130.34375 49.582031 130.386719 49.679688 130.390625 C 49.871094 130.390625 50.027344 130.242188 50.039062 130.050781 C 50.101562 129.519531 50.25 129.003906 50.476562 128.523438 C 51.519531 128.699219 52.582031 128.699219 53.625 128.523438 C 53.847656 129.007812 53.996094 129.519531 54.0625 130.050781 C 54.070312 130.242188 54.230469 130.390625 54.421875 130.390625 C 54.519531 130.386719 54.609375 130.34375 54.671875 130.269531 C 54.734375 130.199219 54.769531 130.105469 54.765625 130.011719 C 54.710938 129.441406 54.566406 128.882812 54.335938 128.355469 C 54.667969 128.261719 54.992188 128.136719 55.296875 127.980469 C 56.363281 129.035156 56.742188 129.660156 56.882812 129.996094 C 56.953125 130.183594 57.160156 130.273438 57.347656 130.203125 C 57.535156 130.132812 57.625 129.921875 57.554688 129.734375 C 57.148438 128.925781 56.597656 128.195312 55.921875 127.585938 C 56.226562 127.351562 56.476562 127.054688 56.65625 126.714844 C 57.90625 126.609375 58.980469 126.105469 59.757812 124.023438 C 59.984375 123.171875 60.089844 122.289062 60.070312 121.402344 C 63.085938 121.6875 65.199219 122.0625 66.191406 122.5 C 66.308594 122.5625 66.457031 122.554688 66.566406 122.476562 C 66.679688 122.398438 66.734375 122.265625 66.71875 122.132812 C 66.699219 122 66.605469 121.886719 66.480469 121.839844 C 65.410156 121.359375 63.304688 120.988281 60.226562 120.695312 L 60.609375 120.425781 L 60.757812 120.320312 C 63.644531 120.464844 69.515625 120.855469 71.546875 121.765625 C 71.722656 121.828125 71.917969 121.742188 71.996094 121.566406 C 72.070312 121.394531 72 121.195312 71.835938 121.105469 C 69.882812 120.25 64.804688 119.84375 61.695312 119.660156 C 61.878906 119.523438 62.058594 119.382812 62.230469 119.238281 C 66.214844 119.261719 68.96875 119.511719 70.214844 119.964844 C 70.398438 120.027344 70.597656 119.929688 70.664062 119.746094 C 70.730469 119.5625 70.640625 119.359375 70.457031 119.285156 C 69.207031 118.835938 66.699219 118.578125 63 118.527344 L 63.3125 118.195312 L 63.433594 118.195312 C 66.394531 118.046875 71.65625 117.886719 73.625 118.511719 C 73.828125 118.574219 74.046875 118.457031 74.109375 118.253906 C 74.171875 118.050781 74.054688 117.832031 73.851562 117.769531 Z M 53.644531 126.867188 C 53.542969 126.695312 53.324219 126.636719 53.148438 126.738281 C 52.976562 126.835938 52.917969 127.058594 53.015625 127.230469 C 53.09375 127.359375 53.207031 127.566406 53.324219 127.808594 C 52.492188 127.929688 51.648438 127.929688 50.8125 127.808594 C 50.980469 127.464844 51.117188 127.234375 51.121094 127.230469 C 51.222656 127.058594 51.164062 126.835938 50.988281 126.738281 C 50.816406 126.636719 50.597656 126.695312 50.496094 126.867188 C 50.496094 126.898438 50.292969 127.21875 50.078125 127.667969 C 49.421875 127.527344 48.820312 127.191406 48.355469 126.707031 L 49.523438 126.707031 C 50.578125 126.699219 51.546875 126.121094 52.050781 125.195312 C 52.558594 126.125 53.535156 126.703125 54.59375 126.699219 L 55.765625 126.699219 C 55.300781 127.1875 54.699219 127.519531 54.042969 127.664062 C 53.824219 127.230469 53.644531 126.910156 53.625 126.878906 Z M 61.871094 118.566406 L 61.832031 118.59375 C 61.425781 118.929688 60.980469 119.257812 60.542969 119.554688 L 60.167969 119.554688 C 60.230469 118.734375 60.382812 117.992188 60.683594 117.769531 C 60.839844 117.644531 60.871094 117.414062 60.746094 117.257812 C 60.621094 117.097656 60.390625 117.070312 60.230469 117.195312 C 59.75 117.59375 59.535156 118.464844 59.445312 119.515625 L 59.152344 119.515625 C 59.054688 119.511719 58.960938 119.546875 58.890625 119.613281 C 58.820312 119.679688 58.78125 119.773438 58.78125 119.867188 C 58.777344 120.066406 58.933594 120.234375 59.132812 120.238281 L 59.402344 120.238281 L 59.402344 120.59375 L 59.316406 120.59375 C 59.117188 120.582031 58.945312 120.726562 58.925781 120.921875 C 58.910156 121.121094 59.054688 121.292969 59.253906 121.3125 L 59.355469 121.3125 C 59.367188 122.128906 59.277344 122.945312 59.085938 123.742188 C 58.40625 125.546875 57.59375 125.925781 56.414062 125.984375 L 54.59375 125.984375 C 53.40625 125.980469 52.4375 125.027344 52.417969 123.835938 C 52.582031 123.679688 52.769531 123.542969 52.972656 123.433594 C 53.457031 123.125 54.164062 122.703125 53.902344 122.089844 C 53.8125 121.878906 53.875 121.777344 54.703125 121.214844 L 55.003906 121.007812 C 55.363281 120.816406 55.601562 120.453125 55.628906 120.046875 C 55.605469 119.730469 55.4375 119.445312 55.171875 119.277344 C 55.011719 119.175781 54.796875 119.222656 54.691406 119.382812 C 54.597656 119.546875 54.640625 119.753906 54.792969 119.863281 C 54.832031 119.890625 54.917969 119.972656 54.921875 120.042969 C 54.925781 120.109375 54.839844 120.238281 54.605469 120.402344 L 54.308594 120.609375 C 53.523438 121.136719 52.90625 121.570312 53.25 122.328125 C 53.210938 122.445312 52.820312 122.683594 52.609375 122.808594 C 52.417969 122.917969 52.238281 123.042969 52.066406 123.179688 C 51.890625 123.042969 51.710938 122.917969 51.519531 122.808594 C 51.292969 122.683594 51.078125 122.53125 50.882812 122.359375 C 51.222656 121.558594 50.601562 121.136719 49.824219 120.605469 L 49.523438 120.398438 C 49.292969 120.234375 49.207031 120.105469 49.207031 120.035156 C 49.207031 119.96875 49.292969 119.886719 49.332031 119.859375 C 49.488281 119.746094 49.527344 119.53125 49.425781 119.371094 C 49.320312 119.210938 49.109375 119.15625 48.941406 119.253906 C 48.675781 119.421875 48.507812 119.707031 48.484375 120.023438 C 48.515625 120.429688 48.75 120.792969 49.109375 120.984375 L 49.414062 121.191406 C 50.246094 121.753906 50.304688 121.855469 50.210938 122.066406 C 49.953125 122.683594 50.640625 123.101562 51.140625 123.410156 C 51.335938 123.519531 51.523438 123.644531 51.699219 123.78125 C 51.695312 124.984375 50.71875 125.953125 49.515625 125.953125 L 48.765625 125.953125 C 46.972656 125.996094 45.878906 126.023438 45.019531 123.710938 C 44.828125 122.917969 44.738281 122.101562 44.75 121.28125 L 44.851562 121.28125 C 45.050781 121.265625 45.199219 121.089844 45.183594 120.890625 C 45.164062 120.691406 44.988281 120.542969 44.789062 120.5625 L 44.722656 120.5625 L 44.722656 120.207031 L 44.992188 120.207031 C 45.191406 120.207031 45.351562 120.042969 45.351562 119.84375 C 45.351562 119.644531 45.191406 119.484375 44.992188 119.484375 L 44.699219 119.484375 C 44.609375 118.429688 44.417969 117.558594 43.914062 117.160156 C 43.746094 117.023438 43.5 117.046875 43.363281 117.21875 C 43.222656 117.386719 43.25 117.632812 43.417969 117.769531 C 43.71875 118.007812 43.855469 118.734375 43.929688 119.554688 L 43.472656 119.554688 C 43.0625 119.246094 42.652344 118.925781 42.277344 118.59375 C 42.257812 118.566406 42.234375 118.546875 42.207031 118.527344 C 42.082031 118.414062 41.957031 118.304688 41.839844 118.195312 L 42.960938 118.265625 L 42.992188 118.265625 C 43.191406 118.273438 43.359375 118.121094 43.367188 117.917969 C 43.375 117.71875 43.21875 117.550781 43.019531 117.542969 C 43.019531 117.542969 42.265625 117.488281 41.09375 117.425781 C 38.476562 114.445312 38.410156 111.554688 38.824219 110.246094 C 38.824219 110.207031 39.945312 106.578125 38.933594 104.988281 C 38.703125 104.609375 38.316406 104.359375 37.875 104.300781 C 37.578125 104.261719 37.480469 103.816406 37.394531 103.199219 C 37.355469 102.894531 37.285156 102.597656 37.183594 102.3125 C 37 101.941406 36.730469 101.621094 36.398438 101.375 C 35.808594 100.910156 35.347656 100.304688 35.0625 99.609375 C 34.582031 98.472656 34.953125 97.847656 35.109375 97.644531 C 35.460938 97.613281 35.8125 97.707031 36.105469 97.90625 C 36.140625 97.933594 39.722656 100.5625 41.296875 100.5625 L 41.464844 100.5625 C 40.023438 101.59375 39.175781 102.917969 39.175781 104.210938 C 39.175781 104.410156 39.335938 104.574219 39.535156 104.574219 C 39.734375 104.574219 39.898438 104.410156 39.898438 104.210938 C 39.898438 102.859375 41.148438 101.378906 43.085938 100.429688 C 43.839844 100.320312 44.570312 100.074219 45.242188 99.714844 C 45.359375 99.652344 45.429688 99.535156 45.433594 99.402344 C 45.4375 99.273438 45.371094 99.152344 45.257812 99.085938 C 45.144531 99.019531 45.003906 99.019531 44.890625 99.082031 C 43.761719 99.640625 42.511719 99.902344 41.253906 99.84375 C 40.652344 99.84375 39.503906 99.261719 38.433594 98.617188 C 39.953125 99.300781 41.738281 98.96875 42.910156 97.785156 C 44.832031 95.945312 46.03125 95.308594 52.050781 95.308594 C 58.070312 95.308594 59.265625 95.953125 61.191406 97.785156 C 61.925781 98.53125 62.921875 98.953125 63.96875 98.964844 C 64.535156 98.957031 65.09375 98.84375 65.621094 98.636719 C 64.558594 99.277344 63.410156 99.855469 62.8125 99.855469 C 61.554688 99.910156 60.304688 99.648438 59.175781 99.09375 C 59.003906 99 58.789062 99.066406 58.691406 99.238281 C 58.597656 99.40625 58.65625 99.625 58.824219 99.722656 C 59.5 100.089844 60.234375 100.335938 60.996094 100.449219 C 62.917969 101.414062 64.183594 102.855469 64.183594 104.230469 C 64.183594 104.429688 64.347656 104.59375 64.546875 104.59375 C 64.746094 104.59375 64.90625 104.429688 64.90625 104.230469 C 64.90625 102.933594 64.054688 101.609375 62.617188 100.582031 L 62.828125 100.582031 C 64.402344 100.582031 67.984375 97.953125 68.019531 97.925781 C 68.308594 97.726562 68.660156 97.636719 69.011719 97.664062 C 69.167969 97.871094 69.515625 98.496094 69.058594 99.628906 C 68.773438 100.320312 68.3125 100.929688 67.722656 101.394531 C 67.386719 101.640625 67.117188 101.960938 66.9375 102.332031 C 66.835938 102.617188 66.765625 102.914062 66.726562 103.214844 C 66.613281 103.855469 66.523438 104.28125 66.242188 104.320312 C 65.796875 104.375 65.394531 104.628906 65.160156 105.015625 C 64.144531 106.609375 65.257812 110.242188 65.273438 110.273438 C 65.691406 111.589844 65.617188 114.480469 63 117.453125 C 61.851562 117.515625 61.078125 117.574219 61.078125 117.574219 C 60.878906 117.582031 60.722656 117.75 60.730469 117.949219 C 60.738281 118.148438 60.90625 118.304688 61.105469 118.296875 L 61.132812 118.296875 L 62.253906 118.222656 C 62.152344 118.332031 62.003906 118.449219 61.871094 118.566406 Z M 61.871094 118.566406 "/>
<path style=" stroke:none;fill-rule:nonzero;fill:rgb(11.372549%,11.372549%,10.588235%);fill-opacity:1;" d="M 59.15625 106.480469 C 59.265625 106.476562 59.367188 106.429688 59.4375 106.34375 L 60.96875 104.457031 C 61.058594 104.359375 61.082031 104.21875 61.035156 104.097656 C 60.992188 103.972656 60.882812 103.882812 60.753906 103.863281 C 60.625 103.84375 60.492188 103.898438 60.414062 104 L 58.878906 105.886719 C 58.789062 105.996094 58.773438 106.144531 58.832031 106.269531 C 58.890625 106.394531 59.019531 106.472656 59.15625 106.472656 Z M 57.375 105.507812 C 57.417969 105.515625 57.464844 105.515625 57.507812 105.507812 C 57.65625 105.507812 57.789062 105.414062 57.84375 105.277344 L 58.523438 103.503906 C 58.59375 103.320312 58.5 103.109375 58.316406 103.039062 C 58.128906 102.96875 57.917969 103.058594 57.847656 103.246094 L 57.167969 105.015625 C 57.128906 105.109375 57.125 105.214844 57.164062 105.308594 C 57.203125 105.402344 57.28125 105.472656 57.375 105.507812 Z M 55.898438 105.359375 C 55.996094 105.351562 56.085938 105.304688 56.148438 105.230469 C 56.207031 105.160156 56.238281 105.0625 56.230469 104.96875 L 56.109375 103.433594 C 56.09375 103.234375 55.921875 103.085938 55.722656 103.101562 C 55.523438 103.117188 55.375 103.292969 55.390625 103.492188 L 55.507812 105.027344 C 55.515625 105.121094 55.5625 105.210938 55.636719 105.273438 C 55.707031 105.335938 55.804688 105.367188 55.898438 105.359375 Z M 55.898438 105.359375 "/>
<path style=" stroke:none;fill-rule:nonzero;fill:rgb(11.372549%,11.372549%,10.588235%);fill-opacity:1;" d="M 46.84375 122.023438 C 46.84375 122.304688 46.617188 122.527344 46.339844 122.527344 C 46.058594 122.527344 45.835938 122.304688 45.835938 122.023438 C 45.835938 121.746094 46.058594 121.519531 46.339844 121.519531 C 46.617188 121.519531 46.84375 121.746094 46.84375 122.023438 Z M 46.84375 122.023438 "/>
<path style=" stroke:none;fill-rule:nonzero;fill:rgb(11.372549%,11.372549%,10.588235%);fill-opacity:1;" d="M 47.011719 123.742188 C 47.011719 124.019531 46.785156 124.246094 46.507812 124.246094 C 46.230469 124.246094 46.003906 124.019531 46.003906 123.742188 C 46.003906 123.460938 46.230469 123.234375 46.507812 123.234375 C 46.785156 123.234375 47.011719 123.460938 47.011719 123.742188 Z M 47.011719 123.742188 "/>
<path style=" stroke:none;fill-rule:nonzero;fill:rgb(11.372549%,11.372549%,10.588235%);fill-opacity:1;" d="M 48.332031 124.871094 C 48.332031 125.152344 48.105469 125.378906 47.828125 125.378906 C 47.546875 125.378906 47.320312 125.152344 47.320312 124.871094 C 47.320312 124.59375 47.546875 124.367188 47.828125 124.367188 C 48.105469 124.367188 48.332031 124.59375 48.332031 124.871094 Z M 48.332031 124.871094 "/>
<path style=" stroke:none;fill-rule:nonzero;fill:rgb(11.372549%,11.372549%,10.588235%);fill-opacity:1;" d="M 48.773438 123.117188 C 48.773438 123.394531 48.546875 123.621094 48.269531 123.621094 C 47.988281 123.621094 47.761719 123.394531 47.761719 123.117188 C 47.761719 122.835938 47.988281 122.609375 48.269531 122.609375 C 48.546875 122.609375 48.773438 122.835938 48.773438 123.117188 Z M 48.773438 123.117188 "/>
<path style=" stroke:none;fill-rule:nonzero;fill:rgb(11.372549%,11.372549%,10.588235%);fill-opacity:1;" d="M 50.179688 124 C 50.179688 124.28125 49.953125 124.507812 49.671875 124.507812 C 49.394531 124.507812 49.167969 124.28125 49.167969 124 C 49.167969 123.722656 49.394531 123.496094 49.671875 123.496094 C 49.953125 123.496094 50.179688 123.722656 50.179688 124 Z M 50.179688 124 "/>
<path style=" stroke:none;fill-rule:nonzero;fill:rgb(11.372549%,11.372549%,10.588235%);fill-opacity:1;" d="M 58.265625 122.023438 C 58.265625 122.304688 58.039062 122.527344 57.761719 122.527344 C 57.484375 122.527344 57.257812 122.304688 57.257812 122.023438 C 57.257812 121.746094 57.484375 121.519531 57.761719 121.519531 C 58.039062 121.519531 58.265625 121.746094 58.265625 122.023438 Z M 58.265625 122.023438 "/>
<path style=" stroke:none;fill-rule:nonzero;fill:rgb(11.372549%,11.372549%,10.588235%);fill-opacity:1;" d="M 58.097656 123.742188 C 58.097656 124.019531 57.871094 124.246094 57.59375 124.246094 C 57.3125 124.246094 57.085938 124.019531 57.085938 123.742188 C 57.085938 123.460938 57.3125 123.234375 57.59375 123.234375 C 57.871094 123.234375 58.097656 123.460938 58.097656 123.742188 Z M 58.097656 123.742188 "/>
<path style=" stroke:none;fill-rule:nonzero;fill:rgb(11.372549%,11.372549%,10.588235%);fill-opacity:1;" d="M 56.78125 124.871094 C 56.78125 125.152344 56.554688 125.378906 56.273438 125.378906 C 55.996094 125.378906 55.769531 125.152344 55.769531 124.871094 C 55.769531 124.59375 55.996094 124.367188 56.273438 124.367188 C 56.554688 124.367188 56.78125 124.59375 56.78125 124.871094 Z M 56.78125 124.871094 "/>
<path style=" stroke:none;fill-rule:nonzero;fill:rgb(11.372549%,11.372549%,10.588235%);fill-opacity:1;" d="M 56.335938 123.117188 C 56.335938 123.394531 56.109375 123.621094 55.832031 123.621094 C 55.554688 123.621094 55.328125 123.394531 55.328125 123.117188 C 55.328125 122.835938 55.554688 122.609375 55.832031 122.609375 C 56.109375 122.609375 56.335938 122.835938 56.335938 123.117188 Z M 56.335938 123.117188 "/>
<path style=" stroke:none;fill-rule:nonzero;fill:rgb(11.372549%,11.372549%,10.588235%);fill-opacity:1;" d="M 54.933594 124 C 54.933594 124.28125 54.707031 124.507812 54.425781 124.507812 C 54.148438 124.507812 53.921875 124.28125 53.921875 124 C 53.921875 123.722656 54.148438 123.496094 54.425781 123.496094 C 54.707031 123.496094 54.933594 123.722656 54.933594 124 Z M 54.933594 124 "/>
<path style=" stroke:none;fill-rule:nonzero;fill:rgb(11.372549%,11.372549%,10.588235%);fill-opacity:1;" d="M 53.761719 113.679688 C 53.667969 113.671875 53.574219 113.703125 53.5 113.765625 C 53.425781 113.828125 53.382812 113.917969 53.375 114.011719 C 53.238281 115 52.769531 115.914062 52.050781 116.605469 C 51.332031 115.914062 50.867188 115 50.738281 114.007812 C 50.722656 113.808594 50.546875 113.660156 50.347656 113.675781 C 50.148438 113.691406 50 113.867188 50.015625 114.066406 C 50.191406 115.347656 50.828125 116.523438 51.808594 117.367188 C 51.875 117.417969 51.953125 117.449219 52.035156 117.449219 C 52.117188 117.449219 52.199219 117.417969 52.261719 117.367188 C 53.242188 116.523438 53.882812 115.347656 54.058594 114.066406 C 54.070312 113.882812 53.945312 113.714844 53.761719 113.679688 Z M 47.417969 114.980469 C 47.246094 114.886719 47.035156 114.945312 46.9375 115.109375 C 46.839844 115.277344 46.714844 115.457031 46.585938 115.644531 C 45.941406 116.578125 44.96875 117.992188 46.339844 119.492188 C 46.476562 119.609375 46.679688 119.605469 46.816406 119.484375 C 46.949219 119.363281 46.972656 119.160156 46.867188 119.011719 C 45.960938 118.027344 46.421875 117.175781 47.175781 116.078125 C 47.316406 115.871094 47.449219 115.679688 47.558594 115.496094 C 47.609375 115.410156 47.628906 115.304688 47.601562 115.207031 C 47.574219 115.109375 47.507812 115.027344 47.417969 114.980469 Z M 57.195312 115.109375 C 57.09375 114.9375 56.875 114.878906 56.699219 114.976562 C 56.527344 115.078125 56.46875 115.296875 56.566406 115.472656 C 56.675781 115.652344 56.808594 115.847656 56.949219 116.054688 C 57.703125 117.148438 58.164062 118 57.257812 118.988281 C 57.148438 119.078125 57.101562 119.222656 57.140625 119.359375 C 57.175781 119.496094 57.289062 119.597656 57.425781 119.621094 C 57.566406 119.644531 57.707031 119.585938 57.785156 119.46875 C 59.15625 117.980469 58.183594 116.582031 57.539062 115.621094 C 57.417969 115.457031 57.292969 115.277344 57.195312 115.109375 Z M 48.148438 119.695312 C 48.210938 119.503906 48.105469 119.300781 47.914062 119.242188 C 47.726562 119.179688 47.523438 119.285156 47.460938 119.472656 C 47.183594 120.367188 47.566406 121.332031 48.378906 121.792969 C 48.550781 121.890625 48.773438 121.832031 48.871094 121.660156 C 48.972656 121.488281 48.914062 121.265625 48.742188 121.167969 C 48.21875 120.878906 47.972656 120.265625 48.148438 119.695312 Z M 55.714844 121.777344 C 56.53125 121.316406 56.914062 120.351562 56.636719 119.460938 C 56.574219 119.269531 56.371094 119.164062 56.179688 119.226562 C 55.992188 119.289062 55.886719 119.492188 55.949219 119.679688 C 56.113281 120.246094 55.871094 120.851562 55.355469 121.136719 C 55.183594 121.238281 55.125 121.460938 55.222656 121.632812 C 55.324219 121.804688 55.542969 121.863281 55.714844 121.765625 Z M 53.4375 119.765625 C 53.085938 120.167969 52.582031 120.398438 52.046875 120.398438 C 51.515625 120.398438 51.011719 120.167969 50.660156 119.765625 C 50.527344 119.613281 50.292969 119.597656 50.140625 119.730469 C 49.984375 119.863281 49.96875 120.09375 50.101562 120.25 C 50.589844 120.816406 51.296875 121.144531 52.046875 121.144531 C 52.792969 121.144531 53.503906 120.816406 53.988281 120.25 C 54.121094 120.09375 54.105469 119.863281 53.949219 119.730469 C 53.796875 119.597656 53.5625 119.613281 53.429688 119.765625 Z M 42.671875 112.730469 C 42.558594 112.652344 42.414062 112.648438 42.296875 112.714844 C 42.175781 112.78125 42.105469 112.910156 42.113281 113.046875 C 42.121094 113.183594 42.203125 113.304688 42.328125 113.359375 C 43.59375 114.054688 44.140625 115.085938 44.140625 115.457031 C 44.140625 115.65625 44.300781 115.816406 44.5 115.816406 C 44.699219 115.816406 44.863281 115.65625 44.863281 115.457031 C 44.863281 114.710938 44.042969 113.484375 42.671875 112.730469 Z M 61.957031 112.871094 C 61.863281 112.703125 61.648438 112.640625 61.476562 112.730469 C 60.09375 113.484375 59.265625 114.710938 59.265625 115.460938 C 59.265625 115.660156 59.429688 115.820312 59.628906 115.820312 C 59.828125 115.820312 59.988281 115.660156 59.988281 115.460938 C 59.988281 115.089844 60.539062 114.054688 61.804688 113.363281 C 61.890625 113.320312 61.953125 113.242188 61.984375 113.152344 C 62.011719 113.058594 62.003906 112.957031 61.957031 112.871094 Z M 61.957031 112.871094 "/>
<path style=" stroke:none;fill-rule:nonzero;fill:rgb(0%,0%,0%);fill-opacity:1;" d="M 86.652344 125.328125 L 86.222656 124.25 L 84.578125 124.25 L 84.148438 125.328125 L 83.875 125.328125 L 85.246094 121.890625 L 85.554688 121.890625 L 86.929688 125.328125 Z M 84.675781 124.011719 L 86.128906 124.011719 L 85.53125 122.511719 L 85.402344 122.148438 L 85.398438 122.148438 L 85.273438 122.5 Z M 91.40625 123.644531 L 92.820312 123.644531 L 92.820312 125.328125 L 92.613281 125.328125 L 92.601562 124.726562 C 92.507812 124.9375 92.359375 125.097656 92.160156 125.210938 C 91.960938 125.324219 91.710938 125.378906 91.417969 125.378906 C 91.105469 125.378906 90.832031 125.308594 90.597656 125.164062 C 90.363281 125.019531 90.183594 124.8125 90.054688 124.546875 C 89.929688 124.277344 89.867188 123.964844 89.867188 123.609375 C 89.867188 123.25 89.933594 122.9375 90.0625 122.671875 C 90.191406 122.402344 90.375 122.199219 90.609375 122.054688 C 90.847656 121.910156 91.121094 121.839844 91.433594 121.839844 C 91.785156 121.839844 92.070312 121.90625 92.292969 122.046875 C 92.515625 122.1875 92.683594 122.398438 92.792969 122.683594 L 92.550781 122.804688 C 92.472656 122.566406 92.339844 122.386719 92.148438 122.261719 C 91.960938 122.136719 91.722656 122.078125 91.433594 122.078125 C 91.175781 122.078125 90.953125 122.136719 90.753906 122.261719 C 90.5625 122.386719 90.410156 122.5625 90.304688 122.792969 C 90.195312 123.023438 90.140625 123.296875 90.140625 123.609375 C 90.140625 124.085938 90.253906 124.460938 90.484375 124.730469 C 90.710938 125.003906 91.027344 125.140625 91.429688 125.140625 C 91.679688 125.140625 91.890625 125.089844 92.066406 124.992188 C 92.238281 124.894531 92.367188 124.761719 92.449219 124.601562 C 92.53125 124.441406 92.574219 124.265625 92.574219 124.082031 L 92.574219 123.890625 L 91.40625 123.890625 Z M 96.605469 125.089844 L 98.773438 125.089844 L 98.773438 125.328125 L 96.347656 125.328125 L 96.347656 121.890625 L 98.691406 121.890625 L 98.691406 122.128906 L 96.605469 122.128906 L 96.605469 123.457031 L 98.253906 123.457031 L 98.253906 123.703125 L 96.605469 123.703125 Z M 104.773438 121.890625 L 104.773438 125.328125 L 104.449219 125.328125 L 102.628906 122.628906 L 102.375 122.171875 L 102.367188 122.171875 L 102.386719 122.605469 L 102.386719 125.328125 L 102.132812 125.328125 L 102.132812 121.890625 L 102.464844 121.890625 L 104.28125 124.582031 L 104.539062 125.042969 L 104.527344 124.613281 L 104.527344 121.890625 Z M 111.179688 124.457031 C 111.082031 124.75 110.914062 124.976562 110.671875 125.136719 C 110.429688 125.296875 110.140625 125.378906 109.804688 125.378906 C 109.492188 125.378906 109.21875 125.308594 108.980469 125.164062 C 108.746094 125.019531 108.5625 124.8125 108.433594 124.546875 C 108.308594 124.277344 108.246094 123.964844 108.246094 123.609375 C 108.246094 123.25 108.308594 122.9375 108.433594 122.671875 C 108.5625 122.402344 108.746094 122.199219 108.980469 122.054688 C 109.21875 121.910156 109.492188 121.839844 109.800781 121.839844 C 110.484375 121.839844 110.929688 122.121094 111.132812 122.6875 L 110.878906 122.804688 C 110.796875 122.5625 110.671875 122.378906 110.496094 122.257812 C 110.320312 122.136719 110.089844 122.078125 109.8125 122.078125 C 109.558594 122.078125 109.332031 122.136719 109.136719 122.261719 C 108.941406 122.386719 108.789062 122.5625 108.679688 122.792969 C 108.574219 123.023438 108.519531 123.296875 108.519531 123.609375 C 108.519531 123.921875 108.574219 124.191406 108.679688 124.421875 C 108.785156 124.652344 108.933594 124.832031 109.125 124.957031 C 109.320312 125.078125 109.546875 125.140625 109.804688 125.140625 C 110.085938 125.140625 110.320312 125.074219 110.511719 124.9375 C 110.707031 124.800781 110.839844 124.609375 110.917969 124.359375 Z M 114.808594 125.089844 L 116.980469 125.089844 L 116.980469 125.328125 L 114.546875 125.328125 L 114.546875 121.890625 L 116.894531 121.890625 L 116.894531 122.128906 L 114.808594 122.128906 L 114.808594 123.457031 L 116.460938 123.457031 L 116.460938 123.703125 L 114.808594 123.703125 Z M 125.65625 121.890625 C 126.203125 121.890625 126.625 122.035156 126.921875 122.324219 C 127.222656 122.617188 127.371094 123.035156 127.371094 123.582031 C 127.371094 124.144531 127.222656 124.578125 126.921875 124.878906 C 126.625 125.175781 126.203125 125.328125 125.65625 125.328125 L 124.574219 125.328125 L 124.574219 121.890625 Z M 125.675781 125.089844 C 126.136719 125.089844 126.488281 124.960938 126.730469 124.699219 C 126.976562 124.441406 127.097656 124.070312 127.097656 123.582031 C 127.097656 123.117188 126.976562 122.757812 126.730469 122.507812 C 126.488281 122.253906 126.136719 122.128906 125.675781 122.128906 L 124.832031 122.128906 L 124.832031 125.089844 Z M 131.105469 125.089844 L 133.273438 125.089844 L 133.273438 125.328125 L 130.84375 125.328125 L 130.84375 121.890625 L 133.191406 121.890625 L 133.191406 122.128906 L 131.105469 122.128906 L 131.105469 123.457031 L 132.75 123.457031 L 132.75 123.703125 L 131.105469 123.703125 Z M 142.566406 122.917969 L 141.875 125.328125 L 141.550781 125.328125 L 140.480469 121.890625 L 140.761719 121.890625 L 141.714844 125.117188 L 142.617188 121.890625 L 142.917969 121.890625 L 143.816406 125.117188 L 144.78125 121.890625 L 145.046875 121.890625 L 143.972656 125.328125 L 143.652344 125.328125 L 142.957031 122.917969 L 142.769531 122.171875 L 142.761719 122.171875 Z M 148.609375 125.089844 L 150.78125 125.089844 L 150.78125 125.328125 L 148.347656 125.328125 L 148.347656 121.890625 L 150.699219 121.890625 L 150.699219 122.128906 L 148.609375 122.128906 L 148.609375 123.457031 L 150.257812 123.457031 L 150.257812 123.703125 L 148.609375 123.703125 Z M 154.136719 125.328125 L 154.136719 121.890625 L 155.351562 121.890625 C 155.726562 121.890625 156.007812 121.96875 156.195312 122.125 C 156.378906 122.28125 156.46875 122.507812 156.46875 122.800781 C 156.46875 123.003906 156.414062 123.171875 156.308594 123.3125 C 156.199219 123.449219 156.042969 123.539062 155.84375 123.582031 L 155.84375 123.585938 C 156.066406 123.621094 156.242188 123.710938 156.371094 123.859375 C 156.5 124.003906 156.566406 124.183594 156.566406 124.402344 C 156.566406 124.695312 156.460938 124.925781 156.25 125.085938 C 156.039062 125.246094 155.738281 125.328125 155.351562 125.328125 Z M 154.398438 123.476562 L 155.359375 123.476562 C 155.917969 123.476562 156.195312 123.25 156.195312 122.800781 C 156.195312 122.351562 155.917969 122.128906 155.359375 122.128906 L 154.398438 122.128906 Z M 154.398438 125.089844 L 155.402344 125.089844 C 155.695312 125.089844 155.917969 125.03125 156.066406 124.910156 C 156.214844 124.792969 156.289062 124.621094 156.289062 124.402344 C 156.289062 124.175781 156.214844 124.003906 156.066406 123.886719 C 155.917969 123.769531 155.695312 123.714844 155.402344 123.714844 L 154.398438 123.714844 Z M 165.347656 121.890625 C 165.898438 121.890625 166.320312 122.035156 166.617188 122.324219 C 166.914062 122.617188 167.0625 123.035156 167.0625 123.582031 C 167.0625 124.144531 166.914062 124.578125 166.617188 124.878906 C 166.320312 125.175781 165.898438 125.328125 165.347656 125.328125 L 164.265625 125.328125 L 164.265625 121.890625 Z M 165.371094 125.089844 C 165.828125 125.089844 166.183594 124.960938 166.425781 124.699219 C 166.671875 124.441406 166.792969 124.070312 166.792969 123.582031 C 166.792969 123.117188 166.671875 122.757812 166.425781 122.507812 C 166.183594 122.253906 165.828125 122.128906 165.371094 122.128906 L 164.527344 122.128906 L 164.527344 125.089844 Z M 170.796875 125.089844 L 172.96875 125.089844 L 172.96875 125.328125 L 170.539062 125.328125 L 170.539062 121.890625 L 172.882812 121.890625 L 172.882812 122.128906 L 170.796875 122.128906 L 170.796875 123.457031 L 172.449219 123.457031 L 172.449219 123.703125 L 170.796875 123.703125 Z M 177.386719 121.839844 C 178.035156 121.839844 178.46875 122.089844 178.6875 122.597656 L 178.464844 122.78125 C 178.375 122.535156 178.246094 122.355469 178.074219 122.242188 C 177.902344 122.132812 177.675781 122.078125 177.394531 122.078125 C 177.191406 122.078125 177.015625 122.109375 176.867188 122.171875 C 176.71875 122.234375 176.605469 122.320312 176.527344 122.425781 C 176.449219 122.535156 176.410156 122.65625 176.410156 122.789062 C 176.410156 122.921875 176.445312 123.03125 176.511719 123.117188 C 176.574219 123.203125 176.6875 123.277344 176.84375 123.339844 C 177.003906 123.402344 177.222656 123.457031 177.5 123.503906 C 177.945312 123.582031 178.265625 123.691406 178.453125 123.839844 C 178.636719 123.984375 178.730469 124.183594 178.730469 124.441406 C 178.730469 124.625 178.679688 124.789062 178.570312 124.933594 C 178.464844 125.074219 178.3125 125.183594 178.117188 125.261719 C 177.917969 125.339844 177.695312 125.378906 177.441406 125.378906 C 177.082031 125.378906 176.777344 125.308594 176.527344 125.164062 C 176.277344 125.019531 176.109375 124.816406 176.019531 124.558594 L 176.25 124.378906 C 176.320312 124.625 176.457031 124.816406 176.667969 124.945312 C 176.878906 125.074219 177.136719 125.140625 177.449219 125.140625 C 177.746094 125.140625 177.988281 125.082031 178.175781 124.960938 C 178.367188 124.835938 178.464844 124.671875 178.464844 124.457031 C 178.464844 124.273438 178.386719 124.128906 178.230469 124.023438 C 178.074219 123.914062 177.808594 123.824219 177.425781 123.761719 C 177.101562 123.703125 176.847656 123.636719 176.660156 123.558594 C 176.472656 123.476562 176.339844 123.378906 176.257812 123.257812 C 176.175781 123.144531 176.136719 122.996094 176.136719 122.816406 C 176.136719 122.640625 176.1875 122.476562 176.289062 122.328125 C 176.390625 122.179688 176.535156 122.058594 176.726562 121.972656 C 176.914062 121.882812 177.136719 121.839844 177.386719 121.839844 Z M 182.414062 121.890625 L 182.414062 125.328125 L 182.152344 125.328125 L 182.152344 121.890625 Z M 187.421875 123.644531 L 188.832031 123.644531 L 188.832031 125.328125 L 188.625 125.328125 L 188.617188 124.726562 C 188.523438 124.9375 188.375 125.097656 188.175781 125.210938 C 187.976562 125.324219 187.730469 125.378906 187.433594 125.378906 C 187.121094 125.378906 186.847656 125.308594 186.613281 125.164062 C 186.378906 125.019531 186.199219 124.8125 186.074219 124.546875 C 185.945312 124.277344 185.882812 123.964844 185.882812 123.609375 C 185.882812 123.25 185.949219 122.9375 186.078125 122.671875 C 186.207031 122.402344 186.390625 122.199219 186.628906 122.054688 C 186.863281 121.910156 187.136719 121.839844 187.449219 121.839844 C 187.800781 121.839844 188.085938 121.90625 188.308594 122.046875 C 188.53125 122.1875 188.699219 122.398438 188.808594 122.683594 L 188.570312 122.804688 C 188.488281 122.566406 188.355469 122.386719 188.167969 122.261719 C 187.976562 122.136719 187.738281 122.078125 187.449219 122.078125 C 187.191406 122.078125 186.964844 122.136719 186.773438 122.261719 C 186.578125 122.386719 186.429688 122.5625 186.320312 122.792969 C 186.210938 123.023438 186.160156 123.296875 186.160156 123.609375 C 186.160156 124.085938 186.273438 124.460938 186.5 124.730469 C 186.726562 125.003906 187.042969 125.140625 187.445312 125.140625 C 187.695312 125.140625 187.90625 125.089844 188.078125 124.992188 C 188.25 124.894531 188.378906 124.761719 188.464844 124.601562 C 188.550781 124.441406 188.589844 124.265625 188.589844 124.082031 L 188.589844 123.890625 L 187.421875 123.890625 Z M 195 121.890625 L 195 125.328125 L 194.675781 125.328125 L 192.855469 122.628906 L 192.601562 122.171875 L 192.59375 122.171875 L 192.609375 122.605469 L 192.609375 125.328125 L 192.359375 125.328125 L 192.359375 121.890625 L 192.6875 121.890625 L 194.503906 124.582031 L 194.765625 125.042969 L 194.753906 124.613281 L 194.753906 121.890625 Z M 195 121.890625 "/>
</g>
</svg>
